<svg width="296" height="176" viewBox="0 0 296 176" fill="none" xmlns="http://www.w3.org/2000/svg">
<path d="M176 8C176 12.4183 172.418 16 168 16C163.582 16 160 12.4183 160 8C160 3.58172 163.582 0 168 0C172.418 0 176 3.58172 176 8Z" fill="#CDDC00"/>
<path d="M176 48C176 52.4183 172.418 56 168 56C163.582 56 160 52.4183 160 48C160 43.5817 163.582 40 168 40C172.418 40 176 43.5817 176 48Z" fill="#CDDC00"/>
<path d="M176 88C176 92.4183 172.418 96 168 96C163.582 96 160 92.4183 160 88C160 83.5817 163.582 80 168 80C172.418 80 176 83.5817 176 88Z" fill="#CDDC00"/>
<path d="M176 128C176 132.418 172.418 136 168 136C163.582 136 160 132.418 160 128C160 123.582 163.582 120 168 120C172.418 120 176 123.582 176 128Z" fill="#CDDC00"/>
<path d="M176 168C176 172.418 172.418 176 168 176C163.582 176 160 172.418 160 168C160 163.582 163.582 160 168 160C172.418 160 176 163.582 176 168Z" fill="#CDDC00"/>
<path d="M216 8C216 12.4183 212.418 16 208 16C203.582 16 200 12.4183 200 8C200 3.58172 203.582 0 208 0C212.418 0 216 3.58172 216 8Z" fill="#CDDC00"/>
<path d="M216 48C216 52.4183 212.418 56 208 56C203.582 56 200 52.4183 200 48C200 43.5817 203.582 40 208 40C212.418 40 216 43.5817 216 48Z" fill="#CDDC00"/>
<path d="M216 88C216 92.4183 212.418 96 208 96C203.582 96 200 92.4183 200 88C200 83.5817 203.582 80 208 80C212.418 80 216 83.5817 216 88Z" fill="#CDDC00"/>
<path d="M216 128C216 132.418 212.418 136 208 136C203.582 136 200 132.418 200 128C200 123.582 203.582 120 208 120C212.418 120 216 123.582 216 128Z" fill="#CDDC00"/>
<path d="M216 168C216 172.418 212.418 176 208 176C203.582 176 200 172.418 200 168C200 163.582 203.582 160 208 160C212.418 160 216 163.582 216 168Z" fill="#CDDC00"/>
<path d="M256 8C256 12.4183 252.418 16 248 16C243.582 16 240 12.4183 240 8C240 3.58172 243.582 0 248 0C252.418 0 256 3.58172 256 8Z" fill="#CDDC00"/>
<path d="M256 48C256 52.4183 252.418 56 248 56C243.582 56 240 52.4183 240 48C240 43.5817 243.582 40 248 40C252.418 40 256 43.5817 256 48Z" fill="#CDDC00"/>
<path d="M256 88C256 92.4183 252.418 96 248 96C243.582 96 240 92.4183 240 88C240 83.5817 243.582 80 248 80C252.418 80 256 83.5817 256 88Z" fill="#CDDC00"/>
<path d="M256 128C256 132.418 252.418 136 248 136C243.582 136 240 132.418 240 128C240 123.582 243.582 120 248 120C252.418 120 256 123.582 256 128Z" fill="#CDDC00"/>
<path d="M256 168C256 172.418 252.418 176 248 176C243.582 176 240 172.418 240 168C240 163.582 243.582 160 248 160C252.418 160 256 163.582 256 168Z" fill="#CDDC00"/>
<path d="M296 8C296 12.4183 292.418 16 288 16C283.582 16 280 12.4183 280 8C280 3.58172 283.582 0 288 0C292.418 0 296 3.58172 296 8Z" fill="#CDDC00"/>
<path d="M296 48C296 52.4183 292.418 56 288 56C283.582 56 280 52.4183 280 48C280 43.5817 283.582 40 288 40C292.418 40 296 43.5817 296 48Z" fill="#CDDC00"/>
<path d="M296 88C296 92.4183 292.418 96 288 96C283.582 96 280 92.4183 280 88C280 83.5817 283.582 80 288 80C292.418 80 296 83.5817 296 88Z" fill="#CDDC00"/>
<path d="M296 128C296 132.418 292.418 136 288 136C283.582 136 280 132.418 280 128C280 123.582 283.582 120 288 120C292.418 120 296 123.582 296 128Z" fill="#CDDC00"/>
<path d="M296 168C296 172.418 292.418 176 288 176C283.582 176 280 172.418 280 168C280 163.582 283.582 160 288 160C292.418 160 296 163.582 296 168Z" fill="#CDDC00"/>
<path d="M16 8C16 12.4183 12.4183 16 8 16C3.58172 16 0 12.4183 0 8C0 3.58172 3.58172 0 8 0C12.4183 0 16 3.58172 16 8Z" fill="#CDDC00"/>
<path d="M16 48C16 52.4183 12.4183 56 8 56C3.58172 56 0 52.4183 0 48C0 43.5817 3.58172 40 8 40C12.4183 40 16 43.5817 16 48Z" fill="#CDDC00"/>
<path d="M16 88C16 92.4183 12.4183 96 8 96C3.58172 96 0 92.4183 0 88C0 83.5817 3.58172 80 8 80C12.4183 80 16 83.5817 16 88Z" fill="#CDDC00"/>
<path d="M16 128C16 132.418 12.4183 136 8 136C3.58172 136 0 132.418 0 128C0 123.582 3.58172 120 8 120C12.4183 120 16 123.582 16 128Z" fill="#CDDC00"/>
<path d="M16 168C16 172.418 12.4183 176 8 176C3.58172 176 0 172.418 0 168C0 163.582 3.58172 160 8 160C12.4183 160 16 163.582 16 168Z" fill="#CDDC00"/>
<path d="M56 8C56 12.4183 52.4183 16 48 16C43.5817 16 40 12.4183 40 8C40 3.58172 43.5817 0 48 0C52.4183 0 56 3.58172 56 8Z" fill="#CDDC00"/>
<path d="M56 48C56 52.4183 52.4183 56 48 56C43.5817 56 40 52.4183 40 48C40 43.5817 43.5817 40 48 40C52.4183 40 56 43.5817 56 48Z" fill="#CDDC00"/>
<path d="M56 88C56 92.4183 52.4183 96 48 96C43.5817 96 40 92.4183 40 88C40 83.5817 43.5817 80 48 80C52.4183 80 56 83.5817 56 88Z" fill="#CDDC00"/>
<path d="M56 128C56 132.418 52.4183 136 48 136C43.5817 136 40 132.418 40 128C40 123.582 43.5817 120 48 120C52.4183 120 56 123.582 56 128Z" fill="#CDDC00"/>
<path d="M56 168C56 172.418 52.4183 176 48 176C43.5817 176 40 172.418 40 168C40 163.582 43.5817 160 48 160C52.4183 160 56 163.582 56 168Z" fill="#CDDC00"/>
<path d="M96 8C96 12.4183 92.4183 16 88 16C83.5817 16 80 12.4183 80 8C80 3.58172 83.5817 0 88 0C92.4183 0 96 3.58172 96 8Z" fill="#CDDC00"/>
<path d="M96 48C96 52.4183 92.4183 56 88 56C83.5817 56 80 52.4183 80 48C80 43.5817 83.5817 40 88 40C92.4183 40 96 43.5817 96 48Z" fill="#CDDC00"/>
<path d="M96 88C96 92.4183 92.4183 96 88 96C83.5817 96 80 92.4183 80 88C80 83.5817 83.5817 80 88 80C92.4183 80 96 83.5817 96 88Z" fill="#CDDC00"/>
<path d="M96 128C96 132.418 92.4183 136 88 136C83.5817 136 80 132.418 80 128C80 123.582 83.5817 120 88 120C92.4183 120 96 123.582 96 128Z" fill="#CDDC00"/>
<path d="M96 168C96 172.418 92.4183 176 88 176C83.5817 176 80 172.418 80 168C80 163.582 83.5817 160 88 160C92.4183 160 96 163.582 96 168Z" fill="#CDDC00"/>
<path d="M136 8C136 12.4183 132.418 16 128 16C123.582 16 120 12.4183 120 8C120 3.58172 123.582 0 128 0C132.418 0 136 3.58172 136 8Z" fill="#CDDC00"/>
<path d="M136 48C136 52.4183 132.418 56 128 56C123.582 56 120 52.4183 120 48C120 43.5817 123.582 40 128 40C132.418 40 136 43.5817 136 48Z" fill="#CDDC00"/>
<path d="M136 88C136 92.4183 132.418 96 128 96C123.582 96 120 92.4183 120 88C120 83.5817 123.582 80 128 80C132.418 80 136 83.5817 136 88Z" fill="#CDDC00"/>
<path d="M136 128C136 132.418 132.418 136 128 136C123.582 136 120 132.418 120 128C120 123.582 123.582 120 128 120C132.418 120 136 123.582 136 128Z" fill="#CDDC00"/>
<path d="M136 168C136 172.418 132.418 176 128 176C123.582 176 120 172.418 120 168C120 163.582 123.582 160 128 160C132.418 160 136 163.582 136 168Z" fill="#CDDC00"/>
</svg>
