<svg width="152" height="35" viewBox="0 0 152 35" fill="none" xmlns="http://www.w3.org/2000/svg">
<path d="M104.509 3.39934H109.853V33.3262H104.509V3.39934ZM112.435 10.6842H117.822V33.3262H112.435V10.6842ZM117.548 1.12755C117.844 1.41649 118.075 1.7596 118.245 2.14966C118.411 2.53973 118.494 2.9587 118.494 3.40294C118.494 3.8508 118.411 4.26976 118.248 4.65983C118.082 5.0499 117.851 5.38941 117.551 5.67834C117.252 5.96728 116.898 6.19843 116.49 6.36457C116.078 6.53071 115.627 6.6174 115.136 6.6174C114.652 6.6174 114.208 6.53433 113.8 6.36457C113.392 6.19843 113.041 5.9709 112.749 5.67834C112.453 5.38941 112.225 5.04628 112.056 4.65622C111.889 4.26615 111.806 3.84718 111.806 3.40294C111.806 2.9587 111.889 2.54334 112.052 2.14966C112.218 1.7596 112.449 1.41649 112.745 1.12755C113.041 0.838607 113.395 0.607454 113.803 0.437702C114.211 0.26795 114.659 0.184875 115.139 0.184875C115.627 0.184875 116.075 0.26795 116.486 0.437702C116.898 0.607454 117.252 0.834995 117.548 1.12755ZM141.268 12.8946C140.427 11.9483 139.358 11.2296 138.069 10.7384C136.78 10.2472 135.252 10.0016 133.494 10.0016C132.746 10.0016 132.006 10.0774 131.273 10.2327C130.54 10.3881 129.839 10.6012 129.171 10.872C128.503 11.1429 127.879 11.4607 127.29 11.8183C126.705 12.1759 126.174 12.5623 125.705 12.9741L125.308 10.6842H120.953V33.3262H126.301V21.6639C126.301 20.6346 126.456 19.6955 126.774 18.8359C127.091 17.9799 127.532 17.2395 128.106 16.6147C128.677 15.9899 129.355 15.5059 130.139 15.1628C130.923 14.8197 131.786 14.6463 132.724 14.6463C133.591 14.6463 134.371 14.7619 135.068 15.0003C135.765 15.235 136.357 15.6142 136.837 16.1452C137.321 16.6725 137.697 17.3551 137.96 18.193C138.224 19.031 138.358 20.0495 138.358 21.2522V33.3335H143.749V21.1438C143.749 19.3705 143.546 17.7885 143.146 16.4016C142.745 15.0147 142.113 13.8409 141.268 12.8946ZM63.7631 10.6842H61.7337C60.1341 10.6842 58.7511 10.9407 57.5884 11.4535C56.4221 11.9664 55.4579 12.6129 54.696 13.3894L54.2122 10.6806H49.8791V33.3226H55.2232V22.4766C55.2232 21.3172 55.3821 20.2951 55.6963 19.4066C56.0104 18.5181 56.4654 17.7777 57.0612 17.1854C57.657 16.593 58.3683 16.1452 59.2061 15.8418C60.0438 15.542 60.9791 15.3903 62.0226 15.3903L63.7667 15.3759V10.6842H63.7631ZM74.715 29.1655C74.1734 29.1655 73.6606 29.0969 73.1731 28.956C72.6893 28.8152 72.2668 28.5732 71.9093 28.2301C71.5482 27.8833 71.263 27.4138 71.0499 26.8215C70.8369 26.2255 70.7285 25.4743 70.7285 24.5678V15.3036H77.9648V10.6842H70.7502V6.62823H65.388C65.388 13.1691 65.4024 17.9691 65.4024 24.6147C65.4024 26.435 65.6335 27.9231 66.0957 29.0824C66.5579 30.2418 67.1862 31.1556 67.977 31.8201C68.7678 32.4883 69.6994 32.947 70.7719 33.1962C71.8443 33.4454 72.989 33.5718 74.2059 33.5718H78.539L78.5823 29.1691H74.715V29.1655ZM150.96 1.12755C151.256 1.4201 151.487 1.7596 151.657 2.14966C151.823 2.53973 151.906 2.9587 151.906 3.40294C151.906 3.8508 151.823 4.26976 151.66 4.65983C151.494 5.0499 151.263 5.38941 150.967 5.67834C150.667 5.9709 150.313 6.19843 149.902 6.36457C149.49 6.53071 149.039 6.61378 148.548 6.61378C148.064 6.61378 147.62 6.53071 147.212 6.36457C146.803 6.19843 146.453 5.9709 146.161 5.67834C145.865 5.38941 145.634 5.04628 145.467 4.65622C145.301 4.26615 145.218 3.84718 145.218 3.40294C145.218 2.9587 145.301 2.54334 145.467 2.14966C145.634 1.7596 145.865 1.41649 146.161 1.12755C146.457 0.838607 146.811 0.607454 147.219 0.437702C147.627 0.26795 148.075 0.184875 148.555 0.184875C149.042 0.184875 149.49 0.26795 149.902 0.437702C150.31 0.607454 150.664 0.834995 150.96 1.12755ZM145.865 10.6842H151.256V33.3262H145.865V10.6842ZM45.174 13.5231C46.2826 14.6102 47.1456 15.8815 47.7703 17.3407C48.395 18.7998 48.7055 20.3601 48.7055 22.0179C48.7055 23.6901 48.3986 25.254 47.7811 26.7059C47.1637 28.1578 46.3006 29.4292 45.1849 30.5127C44.0691 31.5962 42.7475 32.4522 41.2129 33.0734C39.6782 33.6982 37.9955 34.0089 36.1648 34.0089C34.3593 34.0089 32.6983 33.6982 31.1817 33.0734C29.6651 32.4486 28.3544 31.5962 27.253 30.5127C26.1517 29.4292 25.2923 28.1542 24.6676 26.6951C24.4726 26.2364 24.3173 25.7596 24.1801 25.2793C24.1079 26.4928 23.8552 27.5727 23.3966 28.4973C22.8549 29.5917 22.1363 30.4946 21.2408 31.2025C20.3453 31.914 19.3234 32.445 18.1716 32.7989C17.0197 33.1529 15.8425 33.3262 14.6401 33.3262H0.34082V3.39934H13.3871C14.752 3.39934 15.9942 3.58714 17.1172 3.95915C18.2402 4.33116 19.2007 4.87293 19.9987 5.57722C20.7967 6.28151 21.4178 7.13748 21.8583 8.14155C22.2988 9.14561 22.5191 10.2725 22.5191 11.5185C22.5191 12.1795 22.4216 12.8188 22.223 13.4328C22.0244 14.0504 21.7536 14.621 21.4069 15.1483C21.0639 15.6757 20.6595 16.1416 20.1973 16.5461C19.7351 16.9506 19.2404 17.2612 18.7132 17.4815C19.4607 17.7307 20.1684 18.0847 20.8364 18.5398C21.5044 18.9948 22.0858 19.5294 22.5841 20.147C23.068 20.7429 23.4471 21.4111 23.7396 22.1443C23.7396 22.1009 23.7324 22.0612 23.7324 22.0179C23.7324 20.3601 24.0393 18.7998 24.6568 17.3407C25.2742 15.8815 26.1336 14.6102 27.2422 13.5231C28.3507 12.4359 29.6651 11.5799 31.1925 10.9479C32.7164 10.3194 34.381 10.0016 36.1864 10.0016C38.0064 10.0016 39.6782 10.3194 41.2129 10.9479C42.7439 11.5763 44.0655 12.4359 45.174 13.5231ZM10.3611 15.8526H13.0838C13.5821 15.8526 14.0623 15.7551 14.5245 15.5565C14.9867 15.3578 15.3984 15.0869 15.7558 14.7402C16.1133 14.3971 16.4022 13.9817 16.6152 13.4978C16.8283 13.0138 16.933 12.4865 16.933 11.9122C16.933 11.356 16.8283 10.8359 16.6152 10.3519C16.4022 9.86797 16.1169 9.44901 15.7558 9.09867C15.3948 8.74471 14.9867 8.46661 14.5245 8.26074C14.0623 8.05487 13.5821 7.95374 13.0838 7.95374H5.80053V15.8526H8.52678H10.3611ZM5.80053 28.7502H14.1165C14.6292 28.7502 15.1492 28.649 15.6764 28.454C16.2036 28.2554 16.6802 27.97 17.1063 27.598C17.5433 27.2152 17.8827 26.7529 18.1391 26.2328C18.4027 25.6982 18.5363 25.0842 18.5363 24.3944C18.5363 23.7659 18.4171 23.1845 18.1824 22.6571C17.9477 22.1298 17.6335 21.6711 17.2363 21.2811C16.8391 20.891 16.3733 20.5912 15.8389 20.3781C15.3045 20.165 14.734 20.0603 14.1345 20.0603H10.3575H8.52678H5.80053V28.7502ZM42.8197 24.9867C43.1916 24.0766 43.3794 23.0797 43.3794 21.9926C43.3794 20.9235 43.1916 19.9375 42.8197 19.031C42.4442 18.128 41.935 17.3551 41.2923 16.7086C40.6459 16.0621 39.8876 15.5565 39.0138 15.1917C38.14 14.8269 37.2119 14.6427 36.2298 14.6427C35.2332 14.6427 34.3015 14.8233 33.4349 15.1808C32.5683 15.542 31.8136 16.0477 31.1709 16.6978C30.5245 17.3515 30.0154 18.128 29.6435 19.031C29.2679 19.9339 29.0838 20.9199 29.0838 21.9926C29.0838 23.0797 29.2715 24.0729 29.6435 24.9723C30.019 25.8752 30.5281 26.6517 31.1709 27.3055C31.8172 27.9592 32.5719 28.4684 33.4349 28.8332C34.3015 29.2016 35.2332 29.3822 36.2298 29.3822C37.2264 29.3822 38.158 29.2016 39.0246 28.8441C39.8913 28.4865 40.6459 27.9772 41.2923 27.3271C41.9567 26.6553 42.4586 25.8608 42.8197 24.9867ZM99.7676 13.5231C100.873 14.6102 101.739 15.8815 102.364 17.3407C102.989 18.7998 103.299 20.3601 103.299 22.0179C103.299 23.6901 102.992 25.254 102.375 26.7059C101.757 28.1578 100.894 29.4292 99.7784 30.5127C98.6626 31.5962 97.341 32.4522 95.8064 33.0734C94.2718 33.6982 92.5891 34.0089 90.7583 34.0089C88.9529 34.0089 87.2918 33.6982 85.7753 33.0734C84.2587 32.4486 82.9479 31.5962 81.8466 30.5127C80.7452 29.4292 79.8858 28.1542 79.2612 26.6951C78.6365 25.2359 78.3259 23.6793 78.3259 22.0179C78.3259 20.3601 78.6329 18.7998 79.2503 17.3407C79.8678 15.8815 80.7272 14.6102 81.8357 13.5231C82.9443 12.4359 84.2587 11.5799 85.7861 10.9479C87.3099 10.3194 88.9781 10.0016 90.78 10.0016C92.5963 10.0016 94.2718 10.3194 95.8064 10.9479C97.3374 11.5763 98.659 12.4359 99.7676 13.5231ZM97.4097 24.9867C97.7816 24.0766 97.973 23.0797 97.973 21.9926C97.973 20.9235 97.7852 19.9375 97.4097 19.031C97.0341 18.128 96.525 17.3551 95.8822 16.7086C95.2359 16.0621 94.4776 15.5565 93.6037 15.1917C92.7299 14.8269 91.8019 14.6427 90.8197 14.6427C89.8231 14.6427 88.8879 14.8233 88.0249 15.1808C87.1582 15.542 86.4036 16.0477 85.7608 16.6978C85.1145 17.3515 84.6053 18.128 84.2334 19.031C83.8579 19.9339 83.6737 20.9199 83.6737 21.9926C83.6737 23.0797 83.8615 24.0729 84.2334 24.9723C84.6089 25.8752 85.1181 26.6517 85.7608 27.3055C86.4072 27.9592 87.1618 28.4684 88.0249 28.8332C88.8879 29.2016 89.8231 29.3822 90.8197 29.3822C91.8163 29.3822 92.7479 29.2016 93.6146 28.8441C94.4812 28.4865 95.2359 27.9772 95.8822 27.3271C96.5503 26.6553 97.0522 25.8608 97.4097 24.9867Z" fill="black"/>
</svg>
