<svg width="48" height="48" viewBox="0 0 48 48" fill="none" xmlns="http://www.w3.org/2000/svg">
<path d="M47.9918 47.4236C48.0116 47.3242 47.9918 47.2248 47.9719 47.1255C47.9719 47.1255 47.9719 47.1255 47.9719 47.1056L40.978 23.7913C40.978 23.7714 40.9582 23.7714 40.9582 23.7516C40.9582 23.7317 40.9383 23.6919 40.9184 23.6721C40.8985 23.6124 40.8588 23.5727 40.8191 23.5329C40.7992 23.513 40.7992 23.513 40.7992 23.4932C40.7793 23.4733 40.7793 23.4733 40.7595 23.4733C40.7197 23.4335 40.6601 23.3938 40.6005 23.3739C40.5806 23.354 40.5608 23.354 40.5409 23.3342C40.4614 23.3143 40.382 23.2944 40.3025 23.2944H31.4012C31.0237 23.2944 30.7058 23.6124 30.7058 23.9901C30.7058 24.3677 31.0237 24.6857 31.4012 24.6857H38.6335L25.8776 37.446C24.8842 38.4397 23.1357 38.4397 22.1423 37.446L9.38638 24.6857H16.6187C16.9962 24.6857 17.3141 24.3677 17.3141 23.9901C17.3141 23.6124 16.9962 23.2944 16.6187 23.2944H7.69752C7.61804 23.2944 7.53857 23.3143 7.45909 23.3342C7.43922 23.3342 7.41935 23.354 7.39948 23.3739C7.33988 23.3938 7.30014 23.4335 7.24053 23.4733C7.22066 23.4733 7.22066 23.4932 7.20079 23.4932C7.18092 23.513 7.18092 23.513 7.18092 23.5329C7.14119 23.5727 7.12132 23.6323 7.08158 23.6721C7.06171 23.6919 7.06171 23.7118 7.04184 23.7516C7.04184 23.7714 7.02197 23.7714 7.02197 23.7913L0.028099 47.1056C0.028099 47.1056 0.028099 47.1056 0.028099 47.1255C0.00822999 47.2248 -0.011639 47.3242 0.00822999 47.4236C0.00822999 47.4435 0.028099 47.4634 0.028099 47.4832C0.0479679 47.5429 0.0678369 47.6025 0.0877058 47.6621C0.0877058 47.682 0.107575 47.682 0.107575 47.682C0.107575 47.7019 0.107575 47.7019 0.127444 47.7217C0.167182 47.7814 0.226789 47.8012 0.286395 47.8609C0.306264 47.8807 0.326133 47.9205 0.365871 47.9205C0.465216 47.9801 0.58443 48 0.683775 48H47.2964C47.4156 48 47.5149 47.9602 47.6143 47.9205C47.654 47.9006 47.6739 47.8807 47.6937 47.8609C47.7533 47.8211 47.8129 47.7814 47.8527 47.7217C47.8527 47.7217 47.8527 47.7019 47.8726 47.682C47.8726 47.6621 47.8924 47.6621 47.8924 47.6621C47.9322 47.6025 47.952 47.5429 47.952 47.4832C47.9719 47.4634 47.9918 47.4435 47.9918 47.4236ZM46.1241 45.7938L29.4938 35.8162L39.9846 25.3217L46.1241 45.7938ZM24.0099 39.6323C25.0829 39.6323 26.0962 39.2149 26.8711 38.4596L28.5003 36.8298L44.8127 46.6286H3.20713L19.5195 36.8298L21.1488 38.4596C21.9038 39.2149 22.9171 39.6323 24.0099 39.6323ZM8.01542 25.3217L18.5062 35.8162L1.87591 45.7938L8.01542 25.3217Z" fill="#FEDC32"/>
<path d="M24.0099 4.67081C19.7778 4.67081 16.3206 8.12919 16.3206 12.3627C16.3206 16.5963 19.7778 20.0547 24.0099 20.0547C28.242 20.0547 31.6992 16.5963 31.6992 12.3627C31.6793 8.10932 28.242 4.67081 24.0099 4.67081ZM24.0099 18.6435C20.5329 18.6435 17.7115 15.8211 17.7115 12.3429C17.7115 8.8646 20.5329 6.04224 24.0099 6.04224C27.487 6.04224 30.3084 8.8646 30.3084 12.3429C30.2885 15.8211 27.4671 18.6435 24.0099 18.6435Z" fill="#FEDC32"/>
<path d="M24.0099 0C17.1949 0 11.6514 5.54534 11.6514 12.3429C11.6514 21.8435 23.0165 33.3317 23.5132 33.8087C23.6523 33.9478 23.8311 34.0075 24.0099 34.0075C24.1888 34.0075 24.3676 33.9478 24.5067 33.8087C24.9835 33.3317 36.3684 21.8435 36.3684 12.3429C36.3486 5.54534 30.8051 0 24.0099 0ZM24.0099 32.318C21.8243 29.9926 13.0621 20.1938 13.0621 12.3429C13.0423 6.30062 17.9698 1.3913 24.0099 1.3913C30.0501 1.3913 34.9577 6.30062 34.9577 12.3429C34.9577 20.1938 26.1955 29.9926 24.0099 32.318Z" fill="#FEDC32"/>
</svg>
