<svg width="34" height="33" viewBox="0 0 34 33" fill="none" xmlns="http://www.w3.org/2000/svg">
<path d="M16.9998 8.1125C18.6432 8.1125 19.9748 9.405 19.9748 11C19.9748 12.595 18.6432 13.8875 16.9998 13.8875C15.3565 13.8875 14.0248 12.595 14.0248 11C14.0248 9.405 15.3565 8.1125 16.9998 8.1125ZM16.9998 20.4875C21.2073 20.4875 25.6415 22.495 25.6415 23.375V24.8875H8.35817V23.375C8.35817 22.495 12.7923 20.4875 16.9998 20.4875ZM16.9998 5.5C13.869 5.5 11.3332 7.96125 11.3332 11C11.3332 14.0387 13.869 16.5 16.9998 16.5C20.1307 16.5 22.6665 14.0387 22.6665 11C22.6665 7.96125 20.1307 5.5 16.9998 5.5ZM16.9998 17.875C13.2173 17.875 5.6665 19.7175 5.6665 23.375V27.5H28.3332V23.375C28.3332 19.7175 20.7823 17.875 16.9998 17.875Z" fill="#020202"/>
</svg>
