<svg width="46" height="46" viewBox="0 0 46 46" fill="none" xmlns="http://www.w3.org/2000/svg">
<path d="M44.2512 0H1.72975C0.779339 0 0 0.780629 0 1.73262V28.6358C0 29.5877 0.779339 30.3684 1.72975 30.3684H4.52397V31.9296C4.52397 32.2914 4.8281 32.596 5.18926 32.596H17.6397L13.4769 45.1242C13.3628 45.4669 13.5529 45.8477 13.895 45.9619C13.9711 45.981 14.0281 46 14.1041 46C14.3893 46 14.6364 45.8286 14.7314 45.543L16.8033 39.298H22.3157L22.2967 43.0869C22.2967 43.4487 22.6008 43.7533 22.962 43.7533C23.3231 43.7533 23.6273 43.4487 23.6273 43.0869L23.6463 39.279H29.2157L31.2876 45.524C31.3826 45.8096 31.6488 45.981 31.9149 45.981C31.9909 45.981 32.0479 45.9619 32.124 45.9429C32.4661 45.8286 32.6562 45.4478 32.5421 45.1051L28.3793 32.577H40.8678C41.2289 32.577 41.5331 32.2724 41.5331 31.9106V30.3493H44.2702C45.2207 30.3493 46 29.5687 46 28.6167V1.73262C45.981 0.780629 45.2017 0 44.2512 0ZM17.2595 37.9652L19.0463 32.596H22.3537L22.3347 37.9652H17.2595ZM28.7975 37.9652H23.6843L23.7033 32.596H27.0107L28.7975 37.9652ZM40.2025 31.2632H5.85455V28.5215C5.85455 28.293 6.02562 28.1217 6.25372 28.1217H39.7843C40.0124 28.1217 40.1835 28.293 40.1835 28.5215V31.2632H40.2025ZM44.6504 28.6358C44.6504 28.8642 44.4793 29.0356 44.2512 29.0356H41.514V28.5406C41.514 27.5886 40.7347 26.8079 39.7843 26.8079H6.25372C5.30331 26.8079 4.52397 27.5886 4.52397 28.5406V29.0356H1.72975C1.50165 29.0356 1.33058 28.8642 1.33058 28.6358V1.73262C1.33058 1.50414 1.50165 1.33278 1.72975 1.33278H44.2512C44.4793 1.33278 44.6504 1.50414 44.6504 1.73262V28.6358Z" fill="#FEDC32"/>
<path d="M25.5661 9.32947C27.0107 10.1101 28.0562 11.5381 28.3223 13.1755C28.3793 13.4992 28.6455 13.7276 28.9876 13.7276H33.0364C33.2264 13.7276 33.3975 13.6515 33.5306 13.4992C33.6636 13.3659 33.7207 13.1755 33.7017 12.9851C33.5876 11.8046 33.2455 10.6813 32.7702 9.61507L34.6331 5.78808H40.8678C41.2289 5.78808 41.5331 5.48344 41.5331 5.12169C41.5331 4.75993 41.2289 4.4553 40.8678 4.4553H34.2149C33.9678 4.4553 33.7207 4.60762 33.6256 4.83609L31.9909 8.18709C30.8884 6.51159 29.3297 5.14073 27.4479 4.28394C27.2769 4.20778 27.0868 4.20778 26.9157 4.28394C26.7446 4.3601 26.6116 4.51242 26.5545 4.68377L25.281 8.5298C25.1479 8.83444 25.281 9.17715 25.5661 9.32947ZM27.543 5.8452C30.014 7.19702 31.7628 9.61507 32.257 12.3949H29.5008C29.0826 10.7765 28.0562 9.34851 26.6686 8.45364L27.543 5.8452Z" fill="#FEDC32"/>
<path d="M19.1603 17.745C18.2099 16.7359 17.6967 15.4412 17.6967 14.0704C17.6967 11.1192 20.0917 8.70116 23.057 8.70116C23.3421 8.70116 23.6083 8.73924 23.8744 8.77732C24.1975 8.83444 24.5017 8.64404 24.6157 8.32036L25.8893 4.47434C25.9463 4.30298 25.9273 4.09354 25.8322 3.94123C25.7372 3.76987 25.5851 3.65563 25.395 3.61755C24.6157 3.44619 23.8174 3.35099 23.038 3.35099C19.3124 3.35099 16.024 5.27401 14.1231 8.16805L12.4314 4.83609C12.3174 4.60762 12.0893 4.47434 11.8421 4.47434H5.15124C4.79008 4.47434 4.48595 4.77897 4.48595 5.14073C4.48595 5.50248 4.79008 5.80712 5.15124 5.80712H11.424L13.3438 9.57699C12.7165 10.9478 12.3554 12.452 12.3554 14.0704C12.3554 17.0406 13.6099 19.8965 15.7959 21.9338C15.9289 22.048 16.081 22.1051 16.2521 22.1051C16.2711 22.1051 16.2901 22.1051 16.3091 22.1051C16.4992 22.0861 16.6702 21.9909 16.7843 21.8386L19.2174 18.6018C19.4074 18.3353 19.3884 17.9735 19.1603 17.745ZM16.176 20.4106C14.5603 18.678 13.686 16.4503 13.686 14.0704C13.686 12.6233 14.0281 11.2715 14.5983 10.053C14.6744 9.95778 14.7124 9.86258 14.7504 9.74834C16.3091 6.7591 19.4455 4.70281 23.057 4.70281C23.4942 4.70281 23.9314 4.74089 24.3876 4.79801L23.5132 7.40646C23.3612 7.38742 23.2091 7.38742 23.057 7.38742C19.3694 7.38742 16.3661 10.3957 16.3661 14.0894C16.3661 15.6126 16.8793 17.0786 17.8298 18.2591L16.176 20.4106Z" fill="#FEDC32"/>
<path d="M40.8298 22.3336H34.443L32.7702 18.5447C33.2455 17.4975 33.5876 16.3551 33.7017 15.1366C33.7207 14.9462 33.6636 14.7558 33.5306 14.6225C33.3975 14.4892 33.2264 14.394 33.0364 14.394H28.9876C28.6645 14.394 28.3793 14.6225 28.3223 14.9462C27.8851 17.5356 25.6612 19.4205 23.057 19.4205C22.2017 19.4205 21.3653 19.2111 20.586 18.8113C20.3008 18.6589 19.9397 18.7351 19.7496 19.0017L17.3165 22.2384C17.2025 22.3907 17.1645 22.5811 17.2025 22.7715C17.2405 22.9619 17.3545 23.1142 17.5066 23.2094C19.1793 24.2376 21.0992 24.7707 23.057 24.7707C26.7636 24.7707 30.0331 22.9048 31.9529 20.0108L33.3975 23.2666C33.5116 23.5141 33.7397 23.6664 34.0058 23.6664H40.8298C41.1909 23.6664 41.495 23.3618 41.495 23C41.495 22.6192 41.1909 22.3336 40.8298 22.3336ZM23.057 23.4379C21.5934 23.4379 20.1488 23.0952 18.8372 22.4288L20.4909 20.2392C21.3083 20.582 22.1636 20.7533 23.057 20.7533C26.1364 20.7533 28.7785 18.678 29.5198 15.7268H32.276C32.124 16.6026 31.8388 17.4404 31.4587 18.202C31.4397 18.2401 31.4207 18.2591 31.4017 18.2972C29.862 21.3816 26.6876 23.4379 23.057 23.4379Z" fill="#FEDC32"/>
<path d="M9.63719 17.8593H5.15124C4.79008 17.8593 4.48595 18.1639 4.48595 18.5257C4.48595 18.8874 4.79008 19.1921 5.15124 19.1921H9.61818C9.97934 19.1921 10.2835 18.8874 10.2835 18.5257C10.3025 18.1639 9.99835 17.8593 9.63719 17.8593Z" fill="#FEDC32"/>
<path d="M9.63719 20.0869H5.15124C4.79008 20.0869 4.48595 20.3916 4.48595 20.7533C4.48595 21.1151 4.79008 21.4197 5.15124 21.4197H9.61818C9.97934 21.4197 10.2835 21.1151 10.2835 20.7533C10.3025 20.3916 9.99835 20.0869 9.63719 20.0869Z" fill="#FEDC32"/>
<path d="M9.63719 22.3336H5.15124C4.79008 22.3336 4.48595 22.6382 4.48595 23C4.48595 23.3618 4.79008 23.6664 5.15124 23.6664H9.61818C9.97934 23.6664 10.2835 23.3618 10.2835 23C10.3025 22.6192 9.99835 22.3336 9.63719 22.3336Z" fill="#FEDC32"/>
<path d="M40.8678 6.70199H36.3818C36.0207 6.70199 35.7165 7.00662 35.7165 7.36838C35.7165 7.73013 36.0207 8.03477 36.3818 8.03477H40.8678C41.2289 8.03477 41.5331 7.73013 41.5331 7.36838C41.5331 6.98758 41.2289 6.70199 40.8678 6.70199Z" fill="#FEDC32"/>
<path d="M40.8298 20.0869H36.3628C36.0017 20.0869 35.6975 20.3916 35.6975 20.7533C35.6975 21.1151 36.0017 21.4197 36.3628 21.4197H40.8298C41.1909 21.4197 41.495 21.1151 41.495 20.7533C41.495 20.3916 41.1909 20.0869 40.8298 20.0869Z" fill="#FEDC32"/>
<path d="M5.15124 8.03477H9.61818C9.97934 8.03477 10.2835 7.73013 10.2835 7.36838C10.2835 7.00662 9.97934 6.70199 9.61818 6.70199H5.15124C4.79008 6.70199 4.48595 7.00662 4.48595 7.36838C4.48595 7.73013 4.79008 8.03477 5.15124 8.03477Z" fill="#FEDC32"/>
</svg>
