<svg width="13" height="20" viewBox="0 0 13 20" fill="none" xmlns="http://www.w3.org/2000/svg">
<g clip-path="url(#clip0)">
<path d="M7.42857 19.9419H2.47619V12.2231H0V6.87939H2.47619V6.28564C2.47619 3.31689 4.95238 0.941895 8.04762 0.941895H13V5.69189H8.04762C7.67619 5.69189 7.42857 5.92939 7.42857 6.28564V6.87939H11.1429V12.2231H7.42857V19.9419ZM3.71429 18.7544H6.19048V11.0356H9.90476V8.06689H6.19048V6.28564C6.19048 5.27627 6.99524 4.50439 8.04762 4.50439H11.7619V2.12939H8.04762C5.63333 2.12939 3.71429 3.97002 3.71429 6.28564V8.06689H1.2381V11.0356H3.71429V18.7544Z" fill="white"/>
<path d="M7.42857 19.9419H2.47619V12.2231H0V6.87939H2.47619V6.28564C2.47619 3.31689 4.95238 0.941895 8.04762 0.941895H13V5.69189H8.04762C7.67619 5.69189 7.42857 5.92939 7.42857 6.28564V6.87939H11.1429V12.2231H7.42857V19.9419ZM3.71429 18.7544H6.19048V11.0356H9.90476V8.06689H6.19048V6.28564C6.19048 5.27627 6.99524 4.50439 8.04762 4.50439H11.7619V2.12939H8.04762C5.63333 2.12939 3.71429 3.97002 3.71429 6.28564V8.06689H1.2381V11.0356H3.71429V18.7544Z" fill="url(#paint0_linear)"/>
</g>
<defs>
<linearGradient id="paint0_linear" x1="6.5" y1="0.941895" x2="6.5" y2="19.9419" gradientUnits="userSpaceOnUse">
<stop stop-color="white"/>
<stop offset="1" stop-color="white" stop-opacity="0"/>
</linearGradient>
<clipPath id="clip0">
<rect width="13" height="19" fill="white" transform="translate(0 0.941895)"/>
</clipPath>
</defs>
</svg>
