<svg width="152" height="35" viewBox="0 0 152 35" fill="none" xmlns="http://www.w3.org/2000/svg">
<path d="M104.509 3.39934H109.853V33.3262H104.509V3.39934ZM112.435 10.6842H117.822V33.3262H112.435V10.6842ZM117.548 1.12755C117.844 1.41649 118.075 1.7596 118.245 2.14966C118.411 2.53973 118.494 2.9587 118.494 3.40294C118.494 3.8508 118.411 4.26976 118.248 4.65983C118.082 5.0499 117.851 5.38941 117.551 5.67834C117.252 5.96728 116.898 6.19843 116.49 6.36457C116.078 6.53071 115.627 6.6174 115.136 6.6174C114.652 6.6174 114.208 6.53433 113.8 6.36457C113.392 6.19843 113.041 5.9709 112.749 5.67834C112.453 5.38941 112.225 5.04628 112.056 4.65622C111.89 4.26615 111.807 3.84718 111.807 3.40294C111.807 2.9587 111.89 2.54334 112.052 2.14966C112.218 1.7596 112.449 1.41649 112.745 1.12755C113.041 0.838607 113.395 0.607454 113.803 0.437702C114.211 0.26795 114.659 0.184875 115.139 0.184875C115.627 0.184875 116.075 0.26795 116.486 0.437702C116.898 0.607454 117.252 0.834995 117.548 1.12755ZM141.268 12.8946C140.427 11.9483 139.358 11.2296 138.069 10.7384C136.78 10.2472 135.252 10.0016 133.494 10.0016C132.746 10.0016 132.006 10.0774 131.273 10.2327C130.54 10.3881 129.839 10.6012 129.171 10.872C128.503 11.1429 127.879 11.4607 127.29 11.8183C126.705 12.1759 126.174 12.5623 125.705 12.9741L125.308 10.6842H120.953V33.3262H126.301V21.6639C126.301 20.6346 126.456 19.6955 126.774 18.8359C127.092 17.9799 127.532 17.2395 128.106 16.6147C128.677 15.9899 129.356 15.5059 130.139 15.1628C130.923 14.8197 131.786 14.6463 132.725 14.6463C133.591 14.6463 134.371 14.7619 135.068 15.0003C135.765 15.235 136.357 15.6142 136.837 16.1452C137.321 16.6725 137.697 17.3551 137.96 18.193C138.224 19.031 138.358 20.0495 138.358 21.2522V33.3335H143.749V21.1438C143.749 19.3705 143.547 17.7885 143.146 16.4016C142.745 15.0147 142.113 13.8409 141.268 12.8946ZM63.7632 10.6842H61.7339C60.1342 10.6842 58.7512 10.9407 57.5885 11.4535C56.4222 11.9664 55.4581 12.6129 54.6962 13.3894L54.2123 10.6806H49.8792V33.3226H55.2234V22.4766C55.2234 21.3172 55.3822 20.2951 55.6964 19.4066C56.0105 18.5181 56.4655 17.7777 57.0613 17.1854C57.6571 16.593 58.3685 16.1452 59.2062 15.8418C60.0439 15.542 60.9792 15.3903 62.0227 15.3903L63.7668 15.3759V10.6842H63.7632ZM74.7151 29.1655C74.1735 29.1655 73.6607 29.0969 73.1733 28.956C72.6894 28.8152 72.2669 28.5732 71.9094 28.2301C71.5483 27.8833 71.2631 27.4138 71.05 26.8215C70.837 26.2255 70.7287 25.4743 70.7287 24.5678V15.3036H77.965V10.6842H70.7503V6.62823H65.3881C65.3881 13.1691 65.4025 17.9691 65.4025 24.6147C65.4025 26.435 65.6337 27.9231 66.0959 29.0824C66.5581 30.2418 67.1863 31.1556 67.9771 31.8201C68.7679 32.4883 69.6995 32.947 70.772 33.1962C71.8444 33.4454 72.9891 33.5718 74.206 33.5718H78.5391L78.5824 29.1691H74.7151V29.1655ZM150.96 1.12755C151.256 1.4201 151.487 1.7596 151.657 2.14966C151.823 2.53973 151.906 2.9587 151.906 3.40294C151.906 3.8508 151.823 4.26976 151.66 4.65983C151.494 5.0499 151.263 5.38941 150.967 5.67834C150.667 5.9709 150.313 6.19843 149.902 6.36457C149.49 6.53071 149.039 6.61378 148.548 6.61378C148.064 6.61378 147.62 6.53071 147.212 6.36457C146.804 6.19843 146.453 5.9709 146.161 5.67834C145.865 5.38941 145.634 5.04628 145.468 4.65622C145.301 4.26615 145.218 3.84718 145.218 3.40294C145.218 2.9587 145.301 2.54334 145.468 2.14966C145.634 1.7596 145.865 1.41649 146.161 1.12755C146.457 0.838607 146.811 0.607454 147.219 0.437702C147.627 0.26795 148.075 0.184875 148.555 0.184875C149.042 0.184875 149.49 0.26795 149.902 0.437702C150.31 0.607454 150.664 0.834995 150.96 1.12755ZM145.865 10.6842H151.256V33.3262H145.865V10.6842ZM45.1742 13.5231C46.2827 14.6102 47.1457 15.8815 47.7704 17.3407C48.3951 18.7998 48.7056 20.3601 48.7056 22.0179C48.7056 23.6901 48.3987 25.254 47.7812 26.7059C47.1638 28.1578 46.3008 29.4292 45.185 30.5127C44.0692 31.5962 42.7476 32.4522 41.213 33.0734C39.6783 33.6982 37.9956 34.0089 36.1649 34.0089C34.3594 34.0089 32.6984 33.6982 31.1818 33.0734C29.6652 32.4486 28.3545 31.5962 27.2532 30.5127C26.1518 29.4292 25.2924 28.1542 24.6677 26.6951C24.4727 26.2364 24.3175 25.7596 24.1803 25.2793C24.108 26.4928 23.8553 27.5727 23.3967 28.4973C22.855 29.5917 22.1365 30.4946 21.241 31.2025C20.3455 31.914 19.3236 32.445 18.1717 32.7989C17.0198 33.1529 15.8426 33.3262 14.6402 33.3262H0.340942V3.39934H13.3872C14.7521 3.39934 15.9943 3.58714 17.1173 3.95915C18.2403 4.33116 19.2008 4.87293 19.9988 5.57722C20.7968 6.28151 21.4179 7.13748 21.8584 8.14155C22.299 9.14561 22.5192 10.2725 22.5192 11.5185C22.5192 12.1795 22.4217 12.8188 22.2231 13.4328C22.0245 14.0504 21.7537 14.621 21.4071 15.1483C21.064 15.6757 20.6596 16.1416 20.1974 16.5461C19.7352 16.9506 19.2405 17.2612 18.7133 17.4815C19.4608 17.7307 20.1685 18.0847 20.8365 18.5398C21.5046 18.9948 22.0859 19.5294 22.5842 20.147C23.0681 20.7429 23.4472 21.4111 23.7397 22.1443C23.7397 22.1009 23.7325 22.0612 23.7325 22.0179C23.7325 20.3601 24.0394 18.7998 24.6569 17.3407C25.2744 15.8815 26.1338 14.6102 27.2423 13.5231C28.3509 12.4359 29.6652 11.5799 31.1927 10.9479C32.7165 10.3194 34.3811 10.0016 36.1866 10.0016C38.0065 10.0016 39.6783 10.3194 41.213 10.9479C42.744 11.5763 44.0656 12.4359 45.1742 13.5231ZM10.3613 15.8526H13.0839C13.5822 15.8526 14.0624 15.7551 14.5246 15.5565C14.9868 15.3578 15.3985 15.0869 15.756 14.7402C16.1134 14.3971 16.4023 13.9817 16.6154 13.4978C16.8284 13.0138 16.9331 12.4865 16.9331 11.9122C16.9331 11.356 16.8284 10.8359 16.6154 10.3519C16.4023 9.86797 16.1171 9.44901 15.756 9.09867C15.3949 8.74471 14.9868 8.46661 14.5246 8.26074C14.0624 8.05487 13.5822 7.95374 13.0839 7.95374H5.80066V15.8526H8.5269H10.3613ZM5.80066 28.7502H14.1166C14.6294 28.7502 15.1493 28.649 15.6765 28.454C16.2037 28.2554 16.6804 27.97 17.1065 27.598C17.5434 27.2152 17.8828 26.7529 18.1392 26.2328C18.4028 25.6982 18.5364 25.0842 18.5364 24.3944C18.5364 23.7659 18.4172 23.1845 18.1825 22.6571C17.9478 22.1298 17.6336 21.6711 17.2364 21.2811C16.8392 20.891 16.3734 20.5912 15.839 20.3781C15.3046 20.165 14.7341 20.0603 14.1347 20.0603H10.3576H8.5269H5.80066V28.7502ZM42.8198 24.9867C43.1918 24.0766 43.3795 23.0797 43.3795 21.9926C43.3795 20.9235 43.1918 19.9375 42.8198 19.031C42.4443 18.128 41.9352 17.3551 41.2924 16.7086C40.6461 16.0621 39.8878 15.5565 39.0139 15.1917C38.1401 14.8269 37.2121 14.6427 36.2299 14.6427C35.2333 14.6427 34.3017 14.8233 33.4351 15.1808C32.5684 15.542 31.8137 16.0477 31.171 16.6978C30.5246 17.3515 30.0155 18.128 29.6436 19.031C29.268 19.9339 29.0839 20.9199 29.0839 21.9926C29.0839 23.0797 29.2717 24.0729 29.6436 24.9723C30.0191 25.8752 30.5283 26.6517 31.171 27.3055C31.8174 27.9592 32.572 28.4684 33.4351 28.8332C34.3017 29.2016 35.2333 29.3822 36.2299 29.3822C37.2265 29.3822 38.1581 29.2016 39.0248 28.8441C39.8914 28.4865 40.6461 27.9772 41.2924 27.3271C41.9568 26.6553 42.4587 25.8608 42.8198 24.9867ZM99.7677 13.5231C100.873 14.6102 101.739 15.8815 102.364 17.3407C102.989 18.7998 103.299 20.3601 103.299 22.0179C103.299 23.6901 102.992 25.254 102.375 26.7059C101.757 28.1578 100.894 29.4292 99.7785 30.5127C98.6628 31.5962 97.3412 32.4522 95.8065 33.0734C94.2719 33.6982 92.5892 34.0089 90.7585 34.0089C88.953 34.0089 87.292 33.6982 85.7754 33.0734C84.2588 32.4486 82.948 31.5962 81.8467 30.5127C80.7454 29.4292 79.886 28.1542 79.2613 26.6951C78.6366 25.2359 78.326 23.6793 78.326 22.0179C78.326 20.3601 78.633 18.7998 79.2504 17.3407C79.8679 15.8815 80.7273 14.6102 81.8359 13.5231C82.9444 12.4359 84.2588 11.5799 85.7862 10.9479C87.31 10.3194 88.9783 10.0016 90.7801 10.0016C92.5964 10.0016 94.2719 10.3194 95.8065 10.9479C97.3376 11.5763 98.6592 12.4359 99.7677 13.5231ZM97.4098 24.9867C97.7817 24.0766 97.9731 23.0797 97.9731 21.9926C97.9731 20.9235 97.7853 19.9375 97.4098 19.031C97.0342 18.128 96.5251 17.3551 95.8824 16.7086C95.236 16.0621 94.4777 15.5565 93.6039 15.1917C92.73 14.8269 91.802 14.6427 90.8198 14.6427C89.8232 14.6427 88.888 14.8233 88.025 15.1808C87.1584 15.542 86.4037 16.0477 85.7609 16.6978C85.1146 17.3515 84.6054 18.128 84.2335 19.031C83.858 19.9339 83.6738 20.9199 83.6738 21.9926C83.6738 23.0797 83.8616 24.0729 84.2335 24.9723C84.609 25.8752 85.1182 26.6517 85.7609 27.3055C86.4073 27.9592 87.162 28.4684 88.025 28.8332C88.888 29.2016 89.8232 29.3822 90.8198 29.3822C91.8165 29.3822 92.7481 29.2016 93.6147 28.8441C94.4813 28.4865 95.236 27.9772 95.8824 27.3271C96.5504 26.6553 97.0523 25.8608 97.4098 24.9867Z" fill="black"/>
</svg>
