<svg width="49" height="56" viewBox="0 0 49 56" fill="none" xmlns="http://www.w3.org/2000/svg">
<path d="M15.6492 11.141C13.9332 11.7862 12.7037 13.4246 12.7037 15.3554C12.7037 16.099 12.9026 16.7909 13.2239 17.4106C11.8628 17.9314 10.8889 19.2377 10.8889 20.7747C10.8889 22.3121 11.8628 23.6179 13.2239 24.1392C12.9026 24.7589 12.7037 25.4508 12.7037 26.194C12.7037 28.1252 13.9332 29.7636 15.6492 30.4084C15.5132 30.7868 15.4259 31.189 15.4259 31.6132C15.4259 33.6058 17.0538 35.2261 19.0556 35.2261C19.5075 35.2261 19.9359 35.133 20.3351 34.9831C20.9231 36.191 22.1562 37.0325 23.5926 37.0325C25.5944 37.0325 27.2222 35.4122 27.2222 33.4197V8.12968C27.2222 6.13759 25.5944 4.51683 23.5926 4.51683C22.1562 4.51683 20.9231 5.35874 20.3351 6.56626C19.9359 6.41631 19.5075 6.32326 19.0556 6.32326C17.0538 6.32326 15.4259 7.94401 15.4259 9.93611C15.4259 10.3608 15.5132 10.7626 15.6492 11.141ZM19.0556 8.12968C20.0564 8.12968 20.8704 8.93984 20.8704 9.93611H22.6852C22.6852 9.06818 22.3631 8.28051 21.8487 7.65735C22.0591 6.89173 22.757 6.32326 23.5926 6.32326C24.5935 6.32326 25.4074 7.13341 25.4074 8.12968V33.4197C25.4074 34.4159 24.5935 35.2261 23.5926 35.2261C22.757 35.2261 22.0591 34.6581 21.8487 33.892C22.3631 33.2688 22.6852 32.4816 22.6852 31.6132H20.8704C20.8704 32.6095 20.0564 33.4197 19.0556 33.4197C18.0547 33.4197 17.2407 32.6095 17.2407 31.6132C17.2407 30.617 18.0547 29.8068 19.0556 29.8068V28.0004C18.1716 28.0004 17.3714 28.3294 16.7418 28.8533C15.4787 28.6191 14.5185 27.5183 14.5185 26.194C14.5185 24.7002 15.7401 23.4843 17.2407 23.4843C18.7419 23.4843 19.963 24.7002 19.963 26.194H21.7778C21.7778 23.7039 19.7428 21.6779 17.2407 21.6779C16.2155 21.6779 15.2788 22.0311 14.5185 22.6049V22.5811C13.5176 22.5811 12.7037 21.7709 12.7037 20.7747C12.7037 19.7784 13.5176 18.9682 14.5185 18.9682V18.9449C15.2788 19.5186 16.2155 19.8715 17.2407 19.8715C19.7428 19.8715 21.7778 17.8458 21.7778 15.3554H19.963C19.963 16.8496 18.7419 18.065 17.2407 18.065C15.7401 18.065 14.5185 16.8496 14.5185 15.3554C14.5185 14.0314 15.4787 12.9307 16.7418 12.6965C17.3714 13.2204 18.1716 13.549 19.0556 13.549V11.7425C18.0547 11.7425 17.2407 10.9324 17.2407 9.93611C17.2407 8.93984 18.0547 8.12968 19.0556 8.12968Z" fill="#FEDC32"/>
<path d="M37.2037 6.32326C36.7518 6.32326 36.3238 6.41631 35.9246 6.56626C35.3362 5.35874 34.1031 4.51683 32.6667 4.51683C30.6649 4.51683 29.037 6.13759 29.037 8.12968V33.4197C29.037 35.4122 30.6649 37.0325 32.6667 37.0325C34.1031 37.0325 35.3362 36.191 35.9246 34.9831C36.3238 35.133 36.7518 35.2261 37.2037 35.2261C39.2055 35.2261 40.8333 33.6058 40.8333 31.6132C40.8333 31.189 40.7465 30.7868 40.61 30.4084C42.326 29.7636 43.5556 28.1252 43.5556 26.194C43.5556 25.4508 43.3571 24.7589 43.0358 24.1392C44.3969 23.6179 45.3704 22.3121 45.3704 20.7747C45.3704 19.2377 44.3969 17.9314 43.0358 17.4106C43.3571 16.7909 43.5556 16.099 43.5556 15.3554C43.5556 13.4246 42.326 11.7862 40.61 11.141C40.7465 10.7626 40.8333 10.3608 40.8333 9.93611C40.8333 7.94401 39.2055 6.32326 37.2037 6.32326ZM41.7407 15.3554C41.7407 16.8496 40.5196 18.065 39.0185 18.065C37.5178 18.065 36.2963 16.8496 36.2963 15.3554H34.4815C34.4815 17.8458 36.5169 19.8715 39.0185 19.8715C40.0438 19.8715 40.9804 19.5186 41.7407 18.9449V18.9682C42.7416 18.9682 43.5556 19.7784 43.5556 20.7747C43.5556 21.7709 42.7416 22.5811 41.7407 22.5811V22.6049C40.9804 22.0311 40.0438 21.6779 39.0185 21.6779C36.5169 21.6779 34.4815 23.7039 34.4815 26.194H36.2963C36.2963 24.7002 37.5178 23.4843 39.0185 23.4843C40.5196 23.4843 41.7407 24.7002 41.7407 26.194C41.7407 27.5183 40.7806 28.6191 39.5179 28.8533C38.8878 28.3294 38.0876 28.0004 37.2037 28.0004V29.8068C38.2046 29.8068 39.0185 30.617 39.0185 31.6132C39.0185 32.6095 38.2046 33.4197 37.2037 33.4197C36.2028 33.4197 35.3889 32.6095 35.3889 31.6132H33.5741C33.5741 32.4816 33.8962 33.2688 34.4106 33.892C34.2001 34.6581 33.5023 35.2261 32.6667 35.2261C31.6658 35.2261 30.8519 34.4159 30.8519 33.4197V8.12968C30.8519 7.13341 31.6658 6.32326 32.6667 6.32326C33.5023 6.32326 34.2001 6.89173 34.4106 7.65735C33.8962 8.28051 33.5741 9.06818 33.5741 9.93611H35.3889C35.3889 8.93984 36.2028 8.12968 37.2037 8.12968C38.2046 8.12968 39.0185 8.93984 39.0185 9.93611C39.0185 10.9324 38.2046 11.7425 37.2037 11.7425V13.549C38.0876 13.549 38.8878 13.2204 39.5179 12.6965C40.7806 12.9307 41.7407 14.0314 41.7407 15.3554Z" fill="#FEDC32"/>
<path d="M42.4186 5.6335C38.1785 1.6665 32.625 -0.322507 26.7969 0.042659L26.9094 1.84512C32.2347 1.51567 37.3034 3.32827 41.1763 6.94951C45.0509 10.5738 47.1852 15.4846 47.1852 20.7747C47.1852 27.1496 43.9929 33.0611 38.6455 36.5884C36.801 37.8056 35.4053 39.5419 34.5453 41.5486H21.6763C20.8044 39.5274 19.4034 37.7787 17.5558 36.5505C12.0449 32.8843 8.87824 26.7615 9.08426 20.1696L7.27034 20.1136C7.04437 27.3322 10.5132 34.0384 16.5478 38.0517C17.8805 38.9386 18.9448 40.1461 19.6865 41.5486H17.2407V43.355H20.4105C20.5864 43.9402 20.7273 44.54 20.7986 45.1614H19.0556V46.9679H20.8704V49.6775C20.8704 50.1772 21.2771 50.5807 21.7778 50.5807H22.6852C22.6852 53.5695 25.1269 56 28.1296 56C31.1323 56 33.5741 53.5695 33.5741 50.5807H34.4815C34.9826 50.5807 35.3889 50.1772 35.3889 49.6775V46.9679H37.2037V45.1614H35.4527C35.5169 44.5409 35.645 43.9394 35.8173 43.355H39.0185V41.5486H36.5333C37.2644 40.1616 38.3225 38.969 39.6486 38.0949C45.5037 34.2298 49 27.7556 49 20.7747C49 15.0648 46.6008 9.54537 42.4186 5.6335ZM28.1296 54.1936C26.1278 54.1936 24.5 52.5733 24.5 50.5807H31.7593C31.7593 52.5733 30.1314 54.1936 28.1296 54.1936ZM33.5741 48.7743H22.6852V46.9679H33.5741V48.7743ZM33.6388 45.1614H22.6125C22.5518 44.5467 22.4539 43.9425 22.305 43.355H33.921C33.7766 43.9416 33.6928 44.5484 33.6388 45.1614Z" fill="#FEDC32"/>
<path d="M6.35185 6.32326C8.35364 6.32326 9.98148 7.94401 9.98148 9.93611C9.98148 10.4358 10.3882 10.8393 10.8889 10.8393C11.39 10.8393 11.7963 10.4358 11.7963 9.93611C11.7963 7.94401 13.4241 6.32326 15.4259 6.32326C15.927 6.32326 16.3333 5.91972 16.3333 5.42004C16.3333 4.92081 15.927 4.51683 15.4259 4.51683C13.4241 4.51683 11.7963 2.89651 11.7963 0.903975C11.7963 0.404738 11.39 0.000761959 10.8889 0.000761959C10.3882 0.000761959 9.98148 0.404738 9.98148 0.903975C9.98148 2.89651 8.35364 4.51683 6.35185 4.51683C5.85118 4.51683 5.44444 4.92081 5.44444 5.42004C5.44444 5.91972 5.85118 6.32326 6.35185 6.32326ZM10.8889 3.89631C11.2921 4.49963 11.8136 5.01915 12.4197 5.42004C11.8136 5.82137 11.2921 6.34046 10.8889 6.94378C10.4861 6.34046 9.9642 5.82137 9.35808 5.42004C9.9642 5.01915 10.4861 4.49963 10.8889 3.89631Z" fill="#FEDC32"/>
<path d="M9.98148 15.3554C10.4826 15.3554 10.8889 14.9519 10.8889 14.4522C10.8889 13.9529 10.4826 13.549 9.98148 13.549C7.97969 13.549 6.35185 11.9286 6.35185 9.93611C6.35185 9.43687 5.94556 9.0329 5.44444 9.0329C4.94378 9.0329 4.53704 9.43687 4.53704 9.93611C4.53704 11.9286 2.9092 13.549 0.907407 13.549C0.406738 13.549 0 13.9529 0 14.4522C0 14.9519 0.406738 15.3554 0.907407 15.3554C2.9092 15.3554 4.53704 16.9761 4.53704 18.9682C4.53704 19.4679 4.94378 19.8715 5.44444 19.8715C5.94556 19.8715 6.35185 19.4679 6.35185 18.9682C6.35185 16.9761 7.97969 15.3554 9.98148 15.3554ZM5.44444 15.9759C5.04169 15.3726 4.51976 14.8535 3.91364 14.4522C4.51976 14.0513 5.04081 13.5318 5.44444 12.9284C5.84764 13.5318 6.36913 14.0504 6.97525 14.4522C6.36913 14.8535 5.84764 15.3726 5.44444 15.9759Z" fill="#FEDC32"/>
</svg>
