<svg width="56" height="56" viewBox="0 0 56 56" fill="none" xmlns="http://www.w3.org/2000/svg">
<path d="M52.1667 27.7335C51.3096 25.284 49.6837 23.2129 47.535 21.8021C48.3226 20.7272 48.7742 19.4194 48.7742 18.0645V3.6129C48.7742 1.62039 47.1538 0 45.1613 0C43.1688 0 41.5484 1.62039 41.5484 3.6129C40.5521 3.6129 39.7419 4.4231 39.7419 5.41935V7.00632C39.7419 7.97097 40.1177 8.87871 40.8005 9.56155L41.5484 10.3094V17.3103C41.5484 17.7701 41.1501 18.1467 40.6596 18.0519L31.677 16.4188C31.8143 15.745 32.209 15.1218 32.8305 14.663C34.8961 13.1356 36.129 10.6933 36.129 8.12903C36.129 5.81677 35.1391 3.60658 33.4139 2.06477C31.6897 0.523871 29.372 -0.208645 27.0561 0.0532903C23.3972 0.466968 20.4039 3.416 19.9387 7.06503C19.5612 10.0303 20.8212 12.9577 23.2274 14.7045C23.8145 15.1308 24.1965 15.7559 24.3266 16.4315L15.3368 18.0519C14.8825 18.1386 14.4516 17.7701 14.4516 17.3112V10.3103L15.1995 9.56245C15.8823 8.87961 16.2581 7.97187 16.2581 7.00632V5.41935C16.2581 4.4231 15.4479 3.6129 14.4516 3.6129C14.4516 1.62039 12.8312 0 10.8387 0C8.84619 0 7.22581 1.62039 7.22581 3.6129V18.0645C7.22581 19.4194 7.67742 20.7272 8.46503 21.8021C6.31626 23.2129 4.69045 25.2849 3.83329 27.7344L0.0505806 38.5406L0 38.7023V38.8559C0 40.8385 1.61316 42.4516 3.59574 42.4516C4.90361 42.4516 6.07781 41.7561 6.71277 40.6452H7.31703C8.99523 40.6452 10.5596 39.9677 11.7194 38.8387H13.813C15.8968 38.8387 17.7954 37.8343 18.9686 36.1706V56H37.0332V36.1706C38.2055 37.8343 40.1041 38.8387 42.1879 38.8387H44.2806C45.4404 39.9677 47.0048 40.6452 48.683 40.6452H49.2872C49.9222 41.7561 51.0955 42.4516 52.4043 42.4516C54.3868 42.4516 56 40.8385 56 38.8387V38.6852L52.1667 27.7335ZM41.5484 5.41935C42.5446 5.41935 43.3548 6.22955 43.3548 7.22581H45.1613C45.1613 5.89445 44.4297 4.74194 43.3548 4.1151V3.6129C43.3548 2.61665 44.165 1.80645 45.1613 1.80645C46.1575 1.80645 46.9677 2.61665 46.9677 3.6129V9.03226H42.8256L42.0777 8.28439C41.7363 7.94297 41.5484 7.48955 41.5484 7.00632V5.41935ZM40.7951 19.871C42.2068 19.871 43.3548 18.723 43.3548 17.3112V10.8387H46.9677V18.0645C46.9677 19.4781 46.2921 20.8293 45.1613 21.6774C44.3854 22.26 43.4226 22.5806 42.4516 22.5806H35.2258V37.0323H26.1935V34.6667L26.5639 34.2503C30.4803 29.8435 33.0256 24.472 33.9965 18.6769L40.3335 19.8294C40.4853 19.8565 40.6397 19.871 40.7951 19.871ZM30.3385 24.8794L29.0477 23.3312L31.2552 18.1792L32.219 18.3545C31.8441 20.6107 31.2119 22.7956 30.3385 24.8794ZM28 21.1906L26.6596 18.0645H29.3395L28 21.1906ZM24.7439 18.1783L26.9514 23.3303L25.6606 24.8785C24.7836 22.7848 24.1486 20.5935 23.7738 18.3545L24.7439 18.1783ZM28 24.8947L29.5021 26.6975C29.0459 27.6062 28.5519 28.4959 28.0018 29.3539C27.4535 28.495 26.9532 27.608 26.497 26.6966L28 24.8947ZM21.7316 7.29355C22.0929 4.46013 24.4178 2.16955 27.2594 1.848C29.0884 1.64116 30.8497 2.19574 32.2099 3.41148C33.5521 4.61097 34.3226 6.33071 34.3226 8.12903C34.3226 10.1523 33.3868 12.0048 31.7565 13.2106C30.7097 13.9846 30.0458 15.0712 29.8634 16.2581H28.9032V10.6725C29.9519 10.2986 30.7097 9.30503 30.7097 8.12903C30.7097 6.6351 29.4939 5.41935 28 5.41935C26.5061 5.41935 25.2903 6.6351 25.2903 8.12903C25.2903 9.30503 26.0481 10.2986 27.0968 10.6725V16.2581H26.1375C25.956 15.0712 25.2975 13.9756 24.2886 13.244C22.4163 11.8846 21.4363 9.604 21.7316 7.29355ZM27.0968 8.12903C27.0968 7.63135 27.5023 7.22581 28 7.22581C28.4977 7.22581 28.9032 7.63135 28.9032 8.12903C28.9032 8.62671 28.4977 9.03226 28 9.03226C27.5023 9.03226 27.0968 8.62671 27.0968 8.12903ZM15.2049 19.871C15.3603 19.871 15.5147 19.8565 15.6628 19.8294L21.9972 18.6778C22.7342 23.0575 24.4124 27.2684 26.8954 30.9526C26.3652 31.6716 25.8124 32.3761 25.2136 33.0499L24.3871 33.9785V37.0323H20.7742V22.5806H13.5484C12.5774 22.5806 11.6146 22.26 10.8387 21.6774C9.70787 20.8293 9.03226 19.479 9.03226 18.0645V10.8387H12.6452V17.3112C12.6452 18.723 13.7932 19.871 15.2049 19.871ZM10.8387 1.80645C11.835 1.80645 12.6452 2.61665 12.6452 3.6129V4.1151C11.5703 4.74194 10.8387 5.89445 10.8387 7.22581H12.6452C12.6452 6.22955 13.4554 5.41935 14.4516 5.41935V7.00632C14.4516 7.48865 14.2637 7.94297 13.9223 8.28439L13.1745 9.03226H9.03226V3.6129C9.03226 2.61665 9.84245 1.80645 10.8387 1.80645ZM17.8514 34.5357C17.0818 36.0757 15.5337 37.0323 13.8121 37.0323H13.0182C13.0417 36.9835 13.0724 36.9401 13.0941 36.8904L15.2772 31.9796L13.627 31.2453L11.4439 36.1561C10.743 37.735 9.19845 38.7637 7.48142 38.8261L11.6778 28.3351L10.0005 27.664L5.25858 39.5197C4.9849 40.2035 4.33187 40.6452 3.59574 40.6452C2.65458 40.6452 1.88142 39.9154 1.81097 38.9769L5.53677 28.3306C6.30181 26.1448 7.79574 24.3221 9.76297 23.128C10.8505 23.94 12.1926 24.3871 13.5484 24.3871H18.9677V32.303L17.8514 34.5357ZM28.9032 54.1936V46.2108C28.9032 44.8921 29.7441 43.7261 30.9951 43.3079L30.4234 41.5954C29.419 41.9305 28.5835 42.569 27.9991 43.3883C27.4156 42.569 26.5792 41.9295 25.5748 41.5954L25.0031 43.3079C26.2559 43.7261 27.0968 44.8921 27.0968 46.2108V54.1936H20.7742V38.8387H35.2258V54.1936H28.9032ZM52.4043 40.6452C51.6681 40.6452 51.016 40.2035 50.7432 39.5206L46.0013 27.6649L44.324 28.336L48.5204 38.827C46.8034 38.7637 45.2588 37.735 44.557 36.157L42.3739 31.2462L40.7237 31.9805L42.9059 36.8914C42.9276 36.941 42.9583 36.9844 42.9818 37.0332H42.1879C40.4663 37.0332 38.9182 36.0766 38.1486 34.5366L37.0323 32.303V24.3871H42.4516C43.8074 24.3871 45.1505 23.94 46.2352 23.1289C48.2034 24.323 49.6964 26.1448 50.4614 28.3306L54.1881 38.9796C54.1249 39.909 53.349 40.6452 52.4043 40.6452Z" fill="#FEDC32"/>
</svg>
