<svg width="44" height="53" viewBox="0 0 44 53" fill="none" xmlns="http://www.w3.org/2000/svg">
<path d="M43.2102 38.0389L38.5396 30.0757C37.9183 29.0228 36.9757 28.1892 35.8616 27.7285L28.4916 24.7012C29.8199 23.4727 30.8269 21.8713 31.341 20.0505C32.8836 17.4839 34.2976 14.632 34.2976 11.144C34.2976 4.47517 29.3057 0 21.8715 0C14.5872 0 9.7024 4.47517 9.7024 11.144C9.7024 14.1714 10.8807 16.8916 12.659 20.0286C13.1731 21.8493 14.1801 23.4507 15.5084 24.7012L8.13841 27.7285C7.02435 28.1892 6.08167 29.0228 5.46036 30.0757L0.789845 38.0389C-0.581316 40.3642 -0.131404 43.3916 1.86107 45.1904L8.95254 51.6838C9.10251 51.8154 9.27391 51.8812 9.4453 51.8812C9.65955 51.8812 9.85237 51.7935 10.0023 51.618C10.2809 51.3108 10.2594 50.8063 9.93806 50.543L2.84659 44.0497C1.38973 42.7334 1.06836 40.5178 2.07531 38.8286L6.74583 30.8655C7.19574 30.0977 7.88132 29.4834 8.69545 29.1544L16.901 25.7541C18.3793 26.6974 20.1147 27.2459 22 27.2459C23.8639 27.2459 25.5993 26.6974 27.099 25.7541L35.3046 29.1544C36.1187 29.4834 36.8043 30.0977 37.2542 30.8655L41.9247 38.8286C42.9316 40.5397 42.5888 42.7334 41.1534 44.0497L34.0619 50.565C33.762 50.8502 33.7191 51.3328 33.9977 51.6399C34.1476 51.8154 34.3405 51.9031 34.5547 51.9031C34.7261 51.9031 34.9189 51.8373 35.0475 51.7057L42.1389 45.2123C44.1314 43.3916 44.5813 40.3862 43.2102 38.0389ZM21.8715 1.5356C27.3133 1.5356 32.7979 4.4971 32.7979 11.144C32.7979 12.899 32.3908 14.5004 31.7267 16.0799V13.6229C31.7267 11.8241 31.4482 10.1788 30.8911 8.7529C30.8697 8.70902 30.8483 8.68709 30.8269 8.66515C30.784 8.5774 30.7197 8.51159 30.634 8.44578L30.6126 8.42384C30.5483 8.37997 30.4841 8.33609 30.3984 8.31416C30.3769 8.31416 30.3555 8.31416 30.3341 8.29222C30.2698 8.27028 30.2055 8.27028 30.1413 8.27028C30.0984 8.27028 30.0556 8.29222 30.0127 8.29222C29.9913 8.29222 29.9485 8.29222 29.927 8.31416C29.9056 8.31416 29.9056 8.33609 29.8842 8.35803C29.8628 8.35803 29.8413 8.37997 29.8199 8.37997C28.0845 9.43295 25.5993 9.14777 21.7643 7.3928C21.7429 7.3928 21.7429 7.3928 21.7215 7.3928C21.6786 7.37086 21.6358 7.37086 21.5715 7.34892C21.5287 7.34892 21.4858 7.32699 21.4215 7.32699C21.3787 7.32699 21.3358 7.34892 21.293 7.34892C21.2287 7.37086 21.1859 7.37086 21.143 7.3928C21.1216 7.3928 21.1216 7.3928 21.1002 7.3928C21.0788 7.41474 21.0573 7.43667 21.0359 7.45861C20.9931 7.48055 20.9502 7.52442 20.9074 7.56829C20.8645 7.61217 20.8431 7.65604 20.8217 7.69992C20.8002 7.72185 20.7788 7.74379 20.7574 7.78767C20.7574 7.8096 20.7574 7.8096 20.7574 7.83154C20.736 7.87541 20.736 7.94123 20.7145 7.9851C20.7145 8.02897 20.6931 8.07285 20.6931 8.11672C20.6931 8.1606 20.7145 8.20447 20.7145 8.24834C20.736 8.29222 20.736 8.35803 20.7574 8.4019C20.7574 8.42384 20.7574 8.42384 20.7574 8.44578L22.0857 11.144C19.322 11.1002 16.6225 10.2227 14.1801 8.51159C14.1587 8.48965 14.1372 8.48965 14.0944 8.46771C14.073 8.44578 14.0515 8.42384 14.0087 8.42384C13.9873 8.42384 13.9659 8.42384 13.9444 8.4019C13.9016 8.37997 13.8587 8.37997 13.8159 8.37997C13.773 8.37997 13.7088 8.37997 13.6659 8.37997C13.6231 8.37997 13.5802 8.4019 13.5374 8.4019C13.4945 8.42384 13.4302 8.44578 13.3874 8.46771C13.3445 8.48965 13.3231 8.51159 13.2803 8.53353C13.2374 8.5774 13.1946 8.59934 13.1731 8.64321C13.1517 8.66515 13.1303 8.66515 13.1303 8.68709C13.1089 8.70902 13.1089 8.73096 13.0875 8.77483C13.066 8.79677 13.0446 8.81871 13.0446 8.84065C12.5304 10.2446 12.2519 11.8241 12.2519 13.5791V15.8605C11.5877 14.2591 11.1807 12.7016 11.1807 11.1002C11.2021 5.30877 15.3799 1.5356 21.8715 1.5356ZM13.773 17.3084V13.6229C13.773 12.4383 13.9016 11.3415 14.1801 10.3543C16.7082 11.8899 19.4505 12.7016 22.2571 12.7016C22.6213 12.7016 22.9855 12.6796 23.3497 12.6577C23.4569 12.6577 23.5426 12.6138 23.6283 12.57C23.714 12.5261 23.7997 12.4603 23.8639 12.3945C23.8853 12.3506 23.9068 12.3286 23.9282 12.2848C23.9496 12.2409 23.9925 12.197 24.0139 12.1312C24.0353 12.0435 24.0567 11.9338 24.0567 11.8241C24.0567 11.7363 24.0139 11.6486 23.9925 11.5608V11.5389L23.0284 9.58651C24.4638 10.113 25.9849 10.5298 27.4418 10.5298C28.2559 10.5298 29.0486 10.3982 29.7771 10.113C30.0984 11.166 30.2484 12.3506 30.2484 13.6229V17.3084C30.2484 21.959 26.5634 25.7322 22.0214 25.7322C17.458 25.7322 13.773 21.959 13.773 17.3084Z" fill="#FEDC32"/>
<path d="M37.1685 31.5675C36.8043 31.1287 36.2687 30.8874 35.6902 30.8874H8.30981C7.75277 30.8874 7.21716 31.1287 6.83153 31.5675C6.46731 32.0062 6.29592 32.5766 6.38161 33.1469L8.69545 49.7094V51.0037C8.69545 52.1006 9.57385 53 10.6451 53H33.3764C34.4476 53 35.326 52.1006 35.326 51.0037V49.7094L37.6398 33.1469C37.7041 32.5766 37.5327 31.9843 37.1685 31.5675ZM33.3549 51.4425H10.6451C10.388 51.4425 10.1952 51.245 10.1952 50.9818V50.4114H33.8263V50.9818C33.8048 51.245 33.612 51.4425 33.3549 51.4425ZM33.912 48.8758H10.088L7.8599 32.9276C7.83847 32.7521 7.92417 32.6204 7.96702 32.5546C8.00987 32.4888 8.13841 32.4011 8.30981 32.4011H35.7116C35.883 32.4011 36.0116 32.5108 36.0544 32.5546C36.0973 32.6204 36.183 32.7301 36.1615 32.9276L33.912 48.8758Z" fill="#FEDC32"/>
<path d="M22 38.5873C20.2004 38.5873 18.7435 40.0791 18.7435 41.9218C18.7435 43.7645 20.2004 45.2562 22 45.2562C23.7997 45.2562 25.2565 43.7645 25.2565 41.9218C25.2565 40.0791 23.7997 38.5873 22 38.5873ZM22 43.7425C21.0359 43.7425 20.2432 42.9309 20.2432 41.9437C20.2432 40.9565 21.0359 40.1449 22 40.1449C22.9641 40.1449 23.7568 40.9565 23.7568 41.9437C23.7568 42.9309 22.9641 43.7425 22 43.7425Z" fill="#FEDC32"/>
</svg>
