<svg width="56" height="56" viewBox="0 0 56 56" fill="none" xmlns="http://www.w3.org/2000/svg">
<path d="M27.902 7.11595C28.5125 7.11595 29.0074 6.62278 29.0074 6.01443V1.10152C29.0074 0.493173 28.5125 0 27.902 0C27.2915 0 26.7966 0.493173 26.7966 1.10152V6.01443C26.7967 6.62278 27.2916 7.11595 27.902 7.11595Z" fill="#FEDC32"/>
<path d="M54.9215 37.8422L52.9688 35.9018C52.2741 35.2104 51.3483 34.8296 50.3618 34.8296C49.731 34.8296 49.1255 34.986 48.5889 35.279L44.9091 31.6164L45.0884 31.438C46.5812 29.9475 46.5807 27.5254 45.0883 26.0398C44.555 25.5074 43.8895 25.1524 43.1641 25.003C43.264 24.6594 43.3166 24.2996 43.3166 23.9313C43.3166 22.9081 42.9177 21.9487 42.1957 21.2321C41.6623 20.6997 40.9969 20.3447 40.2715 20.1953C40.3714 19.8517 40.424 19.492 40.424 19.1236C40.424 18.1003 40.0251 17.141 39.3019 16.4233C38.7558 15.8798 38.0844 15.5357 37.3794 15.3892C37.7565 14.0934 37.4343 12.6356 36.4113 11.6144C35.5598 10.7695 34.4044 10.4064 33.2909 10.5241L25.9991 9.14869C24.887 8.93847 23.4983 8.79945 22.6216 9.59625C22.5663 9.64657 22.5099 9.70443 22.4544 9.76885C21.0951 9.27513 19.5098 9.56913 18.4213 10.6526C17.6992 11.3713 17.3014 12.3303 17.3014 13.353C17.3014 13.7213 17.3538 14.0811 17.4535 14.4247C16.7289 14.574 16.0643 14.9286 15.5328 15.4593C14.8092 16.1774 14.4103 17.1353 14.4095 18.1567C14.4092 18.526 14.4618 18.8869 14.5621 19.2314C13.8371 19.3804 13.1721 19.7344 12.6389 20.265C11.9154 20.9853 11.5169 21.9448 11.5169 22.9669C11.5169 23.7498 11.7515 24.4957 12.1861 25.1257C11.6373 25.3111 11.1347 25.6196 10.7137 26.0386C9.21992 27.5254 9.21937 29.9476 10.7147 31.4403L10.8933 31.6175L7.2131 35.2782C5.8454 34.6365 4.16028 34.8769 3.03163 36.0002L1.07772 37.9418C0.382727 38.6335 0.000109758 39.5562 0 40.5398C0 41.5235 0.382727 42.4463 1.07772 43.1381L3.51622 45.5652C3.94812 45.9951 4.64804 45.9947 5.07939 45.5643C5.51085 45.1339 5.51042 44.4364 5.07852 44.0066L2.64002 41.5795C2.36321 41.304 2.21075 40.9348 2.21075 40.5399C2.21075 40.1452 2.36321 39.7761 2.63936 39.5012L4.59338 37.5594C5.08159 37.0735 5.82882 37.0011 6.39627 37.3392C6.43623 37.399 6.48244 37.4559 6.53534 37.5087C6.63006 37.6033 6.73817 37.6758 6.85298 37.7289L18.0585 48.8789C18.1118 48.9945 18.1849 49.1033 18.2802 49.1985C18.3731 49.2911 18.479 49.3628 18.5914 49.4155C18.8284 49.6825 18.9593 50.0235 18.9593 50.3873C18.9593 50.7822 18.8069 51.1513 18.5301 51.4268L16.578 53.3697C16.0012 53.942 15.063 53.9419 14.488 53.3715L12.0495 50.9413C11.6178 50.5111 10.918 50.5111 10.4863 50.9413C10.0546 51.3715 10.0546 52.0688 10.4863 52.499L12.9266 54.931C13.6448 55.6438 14.5881 56 15.5318 56C16.4757 56 17.4201 55.6432 18.1392 54.9298L20.0925 52.9856C20.7875 52.2938 21.1702 51.3711 21.1702 50.3873C21.1702 49.6852 20.9743 49.0148 20.61 48.4366L24.7518 44.3142C24.7562 44.3098 24.7606 44.3053 24.7651 44.3008C25.2394 43.8122 26.5601 43.9036 27.8373 43.992C28.7448 44.0549 29.7566 44.1248 30.7451 44.0113L35.2807 48.5257C34.9869 49.0596 34.83 49.6623 34.83 50.2898C34.83 51.2726 35.2128 52.1947 35.9078 52.8865L37.8611 54.8307C38.5557 55.522 39.4815 55.9029 40.468 55.9029C41.4544 55.9029 42.3802 55.5221 43.0749 54.8307L54.9223 43.0389C55.6173 42.3472 56 41.4245 56 40.4408C55.9999 39.4572 55.6172 38.5345 54.9215 37.8422ZM25.5875 11.3132L30.3825 12.2176L27.5125 15.0766C27.0685 14.864 26.46 14.4674 25.7924 13.831C24.8787 12.96 24.2251 11.9543 24.1656 11.327C24.1655 11.3267 24.1655 11.3264 24.1655 11.326C24.1655 11.3259 24.1654 11.3258 24.1654 11.3257C24.1611 11.2806 24.16 11.2446 24.1605 11.2172C24.3051 11.1822 24.689 11.1434 25.5875 11.3132ZM19.9835 12.2113C20.5435 11.6538 21.4134 11.5895 22.0462 12.0165C22.4047 13.5147 23.6873 14.8726 24.2643 15.4228C24.6919 15.8305 26.064 17.053 27.4489 17.389C27.6363 17.6567 27.7382 17.9757 27.7382 18.3124C27.7382 18.746 27.5708 19.1515 27.2658 19.4551C26.9617 19.7587 26.5542 19.9259 26.1182 19.9259C25.6821 19.9259 25.2746 19.7587 24.969 19.4537L24.9689 19.4536L19.9834 14.4944C19.6794 14.192 19.5121 13.7865 19.5121 13.353C19.5122 12.9193 19.6796 12.5138 19.9835 12.2113ZM17.0951 17.018C17.3992 16.7145 17.8063 16.5473 18.2416 16.5473C18.6775 16.5473 19.0859 16.7148 19.392 17.0195L23.4061 21.0116C24.0382 21.6425 24.0382 22.6691 23.4083 23.2978C23.1025 23.6013 22.6935 23.7684 22.2568 23.7684C21.8201 23.7684 21.4111 23.6013 21.1066 23.2991L18.0613 20.265C18.0566 20.2603 18.0514 20.256 18.0466 20.2512L17.0939 19.3022C16.7882 18.9979 16.6199 18.5917 16.6203 18.1584C16.6207 17.7264 16.7884 17.3223 17.0951 17.018ZM14.2012 21.8237C14.5055 21.5209 14.9135 21.3541 15.3501 21.3541C15.7831 21.3541 16.1876 21.5185 16.4906 21.8161L19.5452 24.8586C19.8498 25.1609 20.0176 25.5659 20.0176 25.999C20.0176 26.4321 19.8498 26.8371 19.544 27.1406C19.2398 27.4433 18.8322 27.6101 18.3964 27.6101C17.9599 27.6101 17.551 27.4429 17.2463 27.1406L16.139 26.0384C16.1388 26.0381 16.1384 26.0379 16.1382 26.0376L14.2013 24.1098C13.896 23.8058 13.7278 23.3998 13.7278 22.9667C13.7278 22.5337 13.896 22.1276 14.2012 21.8237ZM12.276 27.5972C12.5817 27.2929 12.9902 27.1254 13.4263 27.1254C13.8623 27.1254 14.2707 27.2928 14.5762 27.5969L15.6851 28.7006C15.9898 29.0029 16.1575 29.4079 16.1575 29.8411C16.1575 30.2742 15.9897 30.6791 15.6828 30.9838C15.3787 31.2873 14.9711 31.4546 14.5352 31.4546C14.0991 31.4546 13.6916 31.2874 13.3852 30.9816L13.2464 30.8438C13.2445 30.842 13.2431 30.84 13.2414 30.8382C13.2393 30.8363 13.2371 30.8345 13.235 30.8325L12.2771 29.8817C11.645 29.2505 11.6445 28.2258 12.276 27.5972ZM34.8022 40.1161C34.3707 39.6856 33.6708 39.6853 33.239 40.1151L32.2556 41.0939C31.3211 42.0251 29.6278 41.9079 27.9903 41.7947C26.2121 41.6715 24.3734 41.5444 23.1835 42.7618L19.112 46.8141L8.93048 36.683L12.5336 33.0989C13.1292 33.4627 13.8164 33.6577 14.5354 33.6577C15.5626 33.6577 16.5259 33.2609 17.2453 32.5426C17.9696 31.8238 18.3686 30.8645 18.3686 29.8412C18.3686 29.8317 18.3679 29.8222 18.3679 29.8127C18.3775 29.8128 18.387 29.8134 18.3966 29.8134C19.4224 29.8134 20.3849 29.4178 21.1053 28.7007C21.8296 27.9819 22.2286 27.0225 22.2286 25.9993C22.2286 25.9897 22.2279 25.9803 22.2279 25.9708C22.2376 25.9708 22.2472 25.9715 22.257 25.9715C23.2825 25.9715 24.2455 25.5763 24.9708 24.8565C25.7237 24.105 26.0961 23.1156 26.089 22.1282C26.0989 22.1284 26.1088 22.1289 26.1186 22.1289C27.1459 22.1288 28.109 21.7321 28.8296 21.0127C29.5517 20.294 29.9494 19.335 29.9494 18.3124C29.9494 17.5972 29.7543 16.9135 29.3904 16.3212L32.5485 13.1754C32.7838 12.9419 33.074 12.7954 33.3782 12.7349C33.4111 12.7314 33.4436 12.7261 33.4757 12.7198C33.9637 12.6527 34.4762 12.8028 34.8494 13.1732C35.4815 13.8041 35.4815 14.8307 34.8517 15.4594L33.8899 16.4139C33.8867 16.4171 33.8833 16.42 33.8801 16.4231L32.7723 17.5252C32.3403 17.955 32.3398 18.6525 32.7713 19.0829C33.2029 19.5134 33.9027 19.5137 34.3345 19.0839L35.3001 18.1229C35.3004 18.1227 35.3006 18.1225 35.3008 18.1223L35.4468 17.9773C36.0806 17.3515 37.1075 17.3528 37.7407 17.9829C38.0454 18.2852 38.2132 18.6903 38.2132 19.1234C38.2132 19.5564 38.0454 19.9614 37.7383 20.2661L36.771 21.232C36.7709 21.2321 36.7708 21.2322 36.7707 21.2325L35.663 22.3318C35.2304 22.7611 35.229 23.4586 35.6598 23.8895C36.0906 24.3206 36.7904 24.3219 37.223 23.8927L38.3357 22.7883C38.6399 22.4847 39.0474 22.3176 39.4834 22.3176C39.9194 22.3176 40.3271 22.4847 40.6334 22.7905C40.9381 23.0929 41.1058 23.498 41.1058 23.9311C41.1058 24.3641 40.9381 24.7691 40.6316 25.0732L38.7032 26.9957C38.2716 27.4259 38.2717 28.1233 38.7034 28.5534C38.9193 28.7684 39.202 28.8758 39.4849 28.8758C39.7678 28.8758 40.0508 28.7682 40.2666 28.5531L41.2117 27.6109C41.2171 27.6058 41.2229 27.6013 41.2283 27.5959C41.5324 27.2923 41.94 27.1252 42.3759 27.1252C42.812 27.1252 43.2195 27.2923 43.5248 27.597C44.1562 28.2256 44.1557 29.2504 43.5248 29.8802L42.5638 30.8367C42.5635 30.837 42.5631 30.8374 42.5627 30.8377C42.5624 30.838 42.5621 30.8385 42.5617 30.8388L41.0365 32.3568C40.6046 32.7868 40.6042 33.4842 41.0356 33.9146C41.2514 34.13 41.5346 34.2377 41.8177 34.2377C42.1003 34.2377 42.3831 34.1303 42.5988 33.9156L43.3449 33.1731L46.9205 36.732L36.7398 46.8648L33.0921 43.2342C33.3464 43.0712 33.5898 42.8796 33.8182 42.652L34.8011 41.6737C35.2332 41.244 35.2336 40.5465 34.8022 40.1161ZM53.3599 41.4802L41.5125 53.272C41.2353 53.5478 40.8643 53.6997 40.4679 53.6997C40.0714 53.6997 39.7005 53.5478 39.4232 53.2719L37.4698 51.3277C37.193 51.0523 37.0406 50.6837 37.0406 50.2898C37.0406 49.8961 37.193 49.5275 37.4698 49.252L49.3173 37.4602C49.5945 37.1843 49.9654 37.0324 50.3619 37.0324C50.7584 37.0324 51.1294 37.1843 51.4073 37.4609L53.36 39.4013C53.6368 39.6768 53.7892 40.0459 53.7892 40.4407C53.7891 40.8357 53.6367 41.2048 53.3599 41.4802Z" fill="#FEDC32"/>
<path d="M13.2241 6.18736C13.4399 6.40195 13.7224 6.50914 14.0049 6.50914C14.2881 6.50914 14.5714 6.40129 14.7873 6.18572C15.2185 5.75511 15.2179 5.05773 14.7858 4.62799L10.7578 0.622126C10.3258 0.192391 9.62591 0.192938 9.19467 0.623658C8.76343 1.05427 8.76409 1.75164 9.19621 2.18138L13.2241 6.18736Z" fill="#FEDC32"/>
<path d="M41.799 6.50914C42.0817 6.50914 42.3644 6.40173 42.5802 6.18703L46.605 2.18105C47.0369 1.75121 47.0374 1.05372 46.6059 0.623329C46.1745 0.192938 45.4747 0.1925 45.0427 0.622454L41.0179 4.62843C40.586 5.05828 40.5855 5.75576 41.017 6.18615C41.2329 6.40151 41.516 6.50914 41.799 6.50914Z" fill="#FEDC32"/>
<path d="M6.79678 47.3818C6.36883 47.8156 6.37476 48.5131 6.81017 48.9395L6.81336 48.9426C7.02815 49.153 7.30705 49.2578 7.58584 49.2578C7.87198 49.2578 8.15812 49.1474 8.37489 48.9277C8.80284 48.4939 8.79526 47.7949 8.35996 47.3684C7.92477 46.942 7.22495 46.948 6.79678 47.3818Z" fill="#FEDC32"/>
<path d="M37.5057 38.5293C37.6739 38.5293 37.8444 38.4911 38.0046 38.4107C38.5496 38.1367 38.7686 37.4744 38.4938 36.9312C38.2188 36.388 37.554 36.1697 37.0091 36.4437L37.0029 36.4468C36.4579 36.7208 36.242 37.3816 36.5168 37.9248C36.7109 38.3084 37.1012 38.5293 37.5057 38.5293Z" fill="#FEDC32"/>
</svg>
