<svg width="19" height="20" viewBox="0 0 19 20" fill="none" xmlns="http://www.w3.org/2000/svg">
<g clip-path="url(#clip0)">
<path d="M17.2188 19.9419H1.78125C0.771875 19.9419 0 19.17 0 18.1606V2.72314C0 1.71377 0.771875 0.941895 1.78125 0.941895H17.2188C18.2281 0.941895 19 1.71377 19 2.72314V18.1606C19 19.17 18.2281 19.9419 17.2188 19.9419ZM1.78125 2.12939C1.425 2.12939 1.1875 2.36689 1.1875 2.72314V18.1606C1.1875 18.5169 1.425 18.7544 1.78125 18.7544H17.2188C17.575 18.7544 17.8125 18.5169 17.8125 18.1606V2.72314C17.8125 2.36689 17.575 2.12939 17.2188 2.12939H1.78125Z" fill="white"/>
<path d="M17.2188 19.9419H1.78125C0.771875 19.9419 0 19.17 0 18.1606V2.72314C0 1.71377 0.771875 0.941895 1.78125 0.941895H17.2188C18.2281 0.941895 19 1.71377 19 2.72314V18.1606C19 19.17 18.2281 19.9419 17.2188 19.9419ZM1.78125 2.12939C1.425 2.12939 1.1875 2.36689 1.1875 2.72314V18.1606C1.1875 18.5169 1.425 18.7544 1.78125 18.7544H17.2188C17.575 18.7544 17.8125 18.5169 17.8125 18.1606V2.72314C17.8125 2.36689 17.575 2.12939 17.2188 2.12939H1.78125Z" fill="url(#paint0_linear)"/>
<path d="M18.4062 5.69189H0.59375V6.87939H18.4062V5.69189Z" fill="white"/>
<path d="M18.4062 5.69189H0.59375V6.87939H18.4062V5.69189Z" fill="url(#paint1_linear)"/>
<path d="M14.25 1.53564H13.0625V6.28564H14.25V1.53564Z" fill="white"/>
<path d="M14.25 1.53564H13.0625V6.28564H14.25V1.53564Z" fill="url(#paint2_linear)"/>
<path d="M9.5 16.9731C7.18437 16.9731 5.34375 15.1325 5.34375 12.8169C5.34375 10.5013 7.18437 8.66064 9.5 8.66064C11.8156 8.66064 13.6562 10.5013 13.6562 12.8169C13.6562 15.1325 11.8156 16.9731 9.5 16.9731ZM9.5 9.84814C7.8375 9.84814 6.53125 11.1544 6.53125 12.8169C6.53125 14.4794 7.8375 15.7856 9.5 15.7856C11.1625 15.7856 12.4688 14.4794 12.4688 12.8169C12.4688 11.1544 11.1625 9.84814 9.5 9.84814Z" fill="white"/>
<path d="M9.5 16.9731C7.18437 16.9731 5.34375 15.1325 5.34375 12.8169C5.34375 10.5013 7.18437 8.66064 9.5 8.66064C11.8156 8.66064 13.6562 10.5013 13.6562 12.8169C13.6562 15.1325 11.8156 16.9731 9.5 16.9731ZM9.5 9.84814C7.8375 9.84814 6.53125 11.1544 6.53125 12.8169C6.53125 14.4794 7.8375 15.7856 9.5 15.7856C11.1625 15.7856 12.4688 14.4794 12.4688 12.8169C12.4688 11.1544 11.1625 9.84814 9.5 9.84814Z" fill="url(#paint3_linear)"/>
</g>
<defs>
<linearGradient id="paint0_linear" x1="9.5" y1="0.941895" x2="9.5" y2="19.9419" gradientUnits="userSpaceOnUse">
<stop stop-color="white"/>
<stop offset="1" stop-color="white" stop-opacity="0"/>
</linearGradient>
<linearGradient id="paint1_linear" x1="9.5" y1="5.69189" x2="9.5" y2="6.87939" gradientUnits="userSpaceOnUse">
<stop stop-color="white"/>
<stop offset="1" stop-color="white" stop-opacity="0"/>
</linearGradient>
<linearGradient id="paint2_linear" x1="13.6562" y1="1.53564" x2="13.6563" y2="6.28564" gradientUnits="userSpaceOnUse">
<stop stop-color="white"/>
<stop offset="1" stop-color="white" stop-opacity="0"/>
</linearGradient>
<linearGradient id="paint3_linear" x1="9.5" y1="8.66064" x2="9.5" y2="16.9731" gradientUnits="userSpaceOnUse">
<stop stop-color="white"/>
<stop offset="1" stop-color="white" stop-opacity="0"/>
</linearGradient>
<clipPath id="clip0">
<rect width="19" height="19" fill="white" transform="translate(0 0.941895)"/>
</clipPath>
</defs>
</svg>
