<svg width="19" height="20" viewBox="0 0 19 20" fill="none" xmlns="http://www.w3.org/2000/svg">
<g clip-path="url(#clip0)">
<path d="M2.375 5.69189C1.06875 5.69189 0 4.62314 0 3.31689C0 2.01064 1.06875 0.941895 2.375 0.941895C3.68125 0.941895 4.75 2.01064 4.75 3.31689C4.75 4.62314 3.68125 5.69189 2.375 5.69189ZM2.375 2.12939C1.72187 2.12939 1.1875 2.66377 1.1875 3.31689C1.1875 3.97002 1.72187 4.50439 2.375 4.50439C3.02813 4.50439 3.5625 3.97002 3.5625 3.31689C3.5625 2.66377 3.02813 2.12939 2.375 2.12939Z" fill="white"/>
<path d="M2.375 5.69189C1.06875 5.69189 0 4.62314 0 3.31689C0 2.01064 1.06875 0.941895 2.375 0.941895C3.68125 0.941895 4.75 2.01064 4.75 3.31689C4.75 4.62314 3.68125 5.69189 2.375 5.69189ZM2.375 2.12939C1.72187 2.12939 1.1875 2.66377 1.1875 3.31689C1.1875 3.97002 1.72187 4.50439 2.375 4.50439C3.02813 4.50439 3.5625 3.97002 3.5625 3.31689C3.5625 2.66377 3.02813 2.12939 2.375 2.12939Z" fill="url(#paint0_linear)"/>
<path d="M4.75 19.9419H0V6.87939H4.75V19.9419ZM1.1875 18.7544H3.5625V8.06689H1.1875V18.7544Z" fill="white"/>
<path d="M4.75 19.9419H0V6.87939H4.75V19.9419ZM1.1875 18.7544H3.5625V8.06689H1.1875V18.7544Z" fill="url(#paint1_linear)"/>
<path d="M18.4062 19.9419H14.8438C14.4875 19.9419 14.25 19.7044 14.25 19.3481V14.0044C14.25 12.995 13.4781 12.2231 12.4688 12.2231C11.4594 12.2231 10.6875 12.995 10.6875 14.0044V19.3481C10.6875 19.7044 10.45 19.9419 10.0938 19.9419H6.53125C6.175 19.9419 5.9375 19.7044 5.9375 19.3481V7.47314C5.9375 7.11689 6.175 6.87939 6.53125 6.87939H10.0938C10.45 6.87939 10.6875 7.11689 10.6875 7.47314V8.24502C11.5188 7.35439 12.5281 6.87939 13.6562 6.87939C16.9812 6.87939 19 9.37314 19 13.4106V19.3481C19 19.7044 18.7625 19.9419 18.4062 19.9419ZM15.4375 18.7544H17.8125V13.4106C17.8125 12.1638 17.5156 8.06689 13.6562 8.06689C12.4094 8.06689 11.2812 9.0169 10.6281 10.5606C10.5094 10.7981 10.2125 10.9763 9.975 10.9169C9.67812 10.8575 9.5 10.62 9.5 10.3231V8.06689H7.125V18.7544H9.5V14.0044C9.5 12.3419 10.8063 11.0356 12.4688 11.0356C14.1313 11.0356 15.4375 12.3419 15.4375 14.0044V18.7544Z" fill="white"/>
<path d="M18.4062 19.9419H14.8438C14.4875 19.9419 14.25 19.7044 14.25 19.3481V14.0044C14.25 12.995 13.4781 12.2231 12.4688 12.2231C11.4594 12.2231 10.6875 12.995 10.6875 14.0044V19.3481C10.6875 19.7044 10.45 19.9419 10.0938 19.9419H6.53125C6.175 19.9419 5.9375 19.7044 5.9375 19.3481V7.47314C5.9375 7.11689 6.175 6.87939 6.53125 6.87939H10.0938C10.45 6.87939 10.6875 7.11689 10.6875 7.47314V8.24502C11.5188 7.35439 12.5281 6.87939 13.6562 6.87939C16.9812 6.87939 19 9.37314 19 13.4106V19.3481C19 19.7044 18.7625 19.9419 18.4062 19.9419ZM15.4375 18.7544H17.8125V13.4106C17.8125 12.1638 17.5156 8.06689 13.6562 8.06689C12.4094 8.06689 11.2812 9.0169 10.6281 10.5606C10.5094 10.7981 10.2125 10.9763 9.975 10.9169C9.67812 10.8575 9.5 10.62 9.5 10.3231V8.06689H7.125V18.7544H9.5V14.0044C9.5 12.3419 10.8063 11.0356 12.4688 11.0356C14.1313 11.0356 15.4375 12.3419 15.4375 14.0044V18.7544Z" fill="url(#paint2_linear)"/>
</g>
<defs>
<linearGradient id="paint0_linear" x1="2.375" y1="0.941895" x2="2.375" y2="5.69189" gradientUnits="userSpaceOnUse">
<stop stop-color="white"/>
<stop offset="1" stop-color="white" stop-opacity="0"/>
</linearGradient>
<linearGradient id="paint1_linear" x1="2.375" y1="6.87939" x2="2.375" y2="19.9419" gradientUnits="userSpaceOnUse">
<stop stop-color="white"/>
<stop offset="1" stop-color="white" stop-opacity="0"/>
</linearGradient>
<linearGradient id="paint2_linear" x1="12.4688" y1="6.87939" x2="12.4688" y2="19.9419" gradientUnits="userSpaceOnUse">
<stop stop-color="white"/>
<stop offset="1" stop-color="white" stop-opacity="0"/>
</linearGradient>
<clipPath id="clip0">
<rect width="19" height="19" fill="white" transform="translate(0 0.941895)"/>
</clipPath>
</defs>
</svg>
