<svg width="24" height="22" viewBox="0 0 24 22" fill="none" xmlns="http://www.w3.org/2000/svg">
<path d="M5.44723 21.9995V7.15616H0.302557V21.9995H5.44723ZM2.87556 5.12833C4.6696 5.12833 5.7863 3.98853 5.7863 2.56416C5.75287 1.10767 4.66966 -0.000488281 2.9096 -0.000488281C1.14982 -0.000488281 -0.000976562 1.1077 -0.000976562 2.56416C-0.000976562 3.9886 1.11545 5.12833 2.84197 5.12833H2.87556ZM8.29479 21.9995H13.4395V13.7103C13.4395 13.2666 13.4729 12.8235 13.6087 12.5063C13.9807 11.62 14.8272 10.702 16.2483 10.702C18.11 10.702 18.8547 12.0631 18.8547 14.0585V21.9994H23.9991V13.4884C23.9991 8.92907 21.461 6.80768 18.0761 6.80768C15.3008 6.80768 14.0822 8.29536 13.4052 9.30861H13.4396V7.15585H8.2949C8.36242 8.54867 8.29479 21.9995 8.29479 21.9995Z" fill="black"/>
</svg>
