<svg width="57" height="52" viewBox="0 0 57 52" fill="none" xmlns="http://www.w3.org/2000/svg">
<path d="M56.4198 1.19874H45.3752V2.08309H56.1301V51.1353H0.868888V2.08309H11.6238V1.19874H0.579258C0.251012 1.19874 0 1.47387 0 1.78831V51.4104C0 51.7445 0.270321 52 0.579258 52H56.4198C56.748 52 56.999 51.7249 56.999 51.4104V1.80796C57.0183 1.47387 56.748 1.19874 56.4198 1.19874Z" fill="white"/>
<path d="M18.0149 0.982616H24.6378C24.6764 0.982616 24.6957 1.00227 24.6957 1.02192V3.47846C24.6957 3.51777 24.6764 3.53742 24.6378 3.53742H22.5911V9.55103C22.5911 9.59033 22.5718 9.60999 22.5331 9.60999H20.1196C20.081 9.60999 20.0616 9.59033 20.0616 9.55103V3.53742H18.0149C17.9763 3.53742 17.957 3.51777 17.957 3.47846V1.02192C17.9763 1.00227 17.9956 0.982616 18.0149 0.982616Z" fill="white"/>
<path d="M25.4294 0.982616H27.843C27.8816 0.982616 27.9009 1.00227 27.9009 1.02192V4.00907H29.6194V1.06122C29.6194 1.02192 29.6387 1.00227 29.6773 1.00227H32.0909C32.1295 1.00227 32.1488 1.02192 32.1488 1.06122V9.59033C32.1488 9.62964 32.1295 9.62964 32.0909 9.62964H29.6773C29.6387 9.62964 29.6194 9.60999 29.6194 9.59033V6.58353H27.9009V9.57068C27.9009 9.60999 27.8816 9.62964 27.843 9.62964H25.4294C25.3908 9.62964 25.3908 9.60999 25.3908 9.57068V1.02192C25.3908 1.00227 25.4101 0.982616 25.4294 0.982616Z" fill="white"/>
<path d="M33.0177 0.982616H39.0034C39.042 0.982616 39.042 1.00227 39.042 1.02192V3.47846C39.042 3.51777 39.0227 3.53742 39.0034 3.53742H35.4892V4.00907H37.4394C37.478 4.00907 37.4973 4.02873 37.4973 4.06803V6.52457C37.4973 6.56388 37.478 6.58353 37.4394 6.58353H35.4892V7.03553H39.0034C39.042 7.03553 39.042 7.05518 39.042 7.09449V9.57068C39.042 9.60999 39.0227 9.62964 39.0034 9.62964H33.0177C32.9791 9.62964 32.9791 9.60999 32.9791 9.57068V1.02192C32.9791 1.00227 32.9984 0.982616 33.0177 0.982616Z" fill="white"/>
<path d="M6.00498 12.0862H16.5861C16.644 12.0862 16.6633 12.1255 16.6633 12.1648V16.0952C16.6633 16.1542 16.644 16.1738 16.5861 16.1738H13.3036V25.8035C13.3036 25.8624 13.2843 25.8821 13.2264 25.8821H9.36468C9.30676 25.8821 9.28745 25.8624 9.28745 25.8035V16.1738H6.00498C5.94706 16.1738 5.92775 16.1542 5.92775 16.0952V12.1648C5.92775 12.1255 5.94706 12.0862 6.00498 12.0862Z" fill="white"/>
<path d="M18.0922 12.0862H27.6499C27.7079 12.0862 27.7272 12.1255 27.7272 12.1648V16.0952C27.7272 16.1542 27.7079 16.1738 27.6499 16.1738H22.0504V16.9403H25.1591C25.217 16.9403 25.2364 16.9796 25.2364 17.0189V20.9494C25.2364 21.0083 25.217 21.028 25.1591 21.028H22.0504V21.7551H27.6499C27.7079 21.7551 27.7272 21.7944 27.7272 21.8337V25.8035C27.7272 25.8624 27.7079 25.8821 27.6499 25.8821H18.0922C18.0342 25.8821 18.0149 25.8624 18.0149 25.8035V12.1648C18.0342 12.1255 18.0536 12.0862 18.0922 12.0862Z" fill="white"/>
<path d="M31.782 12.0469H38.8682C38.9262 12.0665 38.9455 12.0862 38.9455 12.1255V16.1149C38.9455 16.1738 38.9069 16.1935 38.8682 16.1935H33.095V21.8141H38.8682C38.9262 21.8141 38.9455 21.8534 38.9455 21.8927V25.8231C38.9455 25.8821 38.9069 25.9017 38.8682 25.9017H31.782C30.7779 24.9191 29.8704 24.0151 29.0788 23.1504V14.7982C30.0442 13.7763 30.9517 12.8723 31.782 12.0469Z" fill="white"/>
<path d="M40.3936 12.0862H44.2553C44.3133 12.0862 44.3326 12.1255 44.3326 12.1648V16.9403H47.0744V12.2237C47.0744 12.1648 47.113 12.1451 47.1516 12.1451H51.0134C51.0713 12.1451 51.0906 12.1844 51.0906 12.2237V25.8624C51.0906 25.9214 51.0713 25.9411 51.0134 25.9411H47.1516C47.0937 25.9411 47.0744 25.9214 47.0744 25.8624V21.0476H44.3326V25.8231C44.3326 25.8821 44.3133 25.9017 44.2553 25.9017H40.3936C40.3357 25.9017 40.3164 25.8821 40.3164 25.8231V12.1648C40.3164 12.1255 40.3357 12.0862 40.3936 12.0862Z" fill="white"/>
<path d="M7.14419 28.3976H11.9907C12.0679 28.3976 12.1065 28.4369 12.1065 28.4959V34.4898H15.5434V28.5548C15.5434 28.4762 15.5821 28.4369 15.6593 28.4369H20.5058C20.583 28.4369 20.6216 28.4762 20.6216 28.5548V45.6917C20.6216 45.7506 20.583 45.7899 20.5058 45.7899H15.6593C15.5821 45.7899 15.5434 45.7506 15.5434 45.6917V39.6387H12.1065V45.6327C12.1065 45.7113 12.0679 45.7506 11.9907 45.7506H7.14419C7.08626 45.7506 7.04765 45.7113 7.04765 45.6327V28.4959C7.06696 28.4173 7.08626 28.3976 7.14419 28.3976Z" fill="white"/>
<path d="M22.398 28.3976H27.3024C27.3796 28.3976 27.4182 28.4369 27.4182 28.4959V40.641H30.7972V28.4959C30.7972 28.4369 30.8359 28.3976 30.9131 28.3976H35.8175C35.8947 28.3976 35.9333 28.4369 35.9333 28.4959V42.3508C33.6935 44.6894 32.535 45.8685 32.4385 45.8685C28.4609 45.8292 26.2018 45.8096 25.6611 45.8096C23.46 43.5496 22.3594 42.3901 22.3401 42.3704V28.4959C22.3015 28.4173 22.3401 28.3976 22.398 28.3976Z" fill="white"/>
<path d="M37.6904 28.4958H48.0205C49.8741 30.0287 50.8975 30.9131 51.0906 31.1489V36.1406C50.4341 36.7498 50.0672 37.0446 49.99 37.0446V37.2018C50.0672 37.2018 50.4341 37.4966 51.0906 38.1058V43.0975C50.8975 43.3334 49.8741 44.2177 48.0205 45.7506H37.6904C37.6325 45.7506 37.5939 45.7113 37.5939 45.6327V28.5941C37.6132 28.5155 37.6325 28.4958 37.6904 28.4958ZM42.7107 34.4309H46.051V32.839H42.7107V34.4309ZM42.7107 41.3878H46.051V39.7959H42.7107V41.3878Z" fill="white"/>
<path d="M13.2843 1.6508C13.2843 0.727136 12.5506 0 11.6624 0C10.7742 0 10.0405 0.727136 10.0405 1.6508C10.0405 2.5548 10.7549 3.30159 11.6624 3.30159C12.5506 3.28194 13.2843 2.5548 13.2843 1.6508Z" fill="white"/>
<path d="M46.9585 1.6508C46.9585 0.746788 46.2441 0 45.3366 0C44.4484 0 43.7147 0.727136 43.7147 1.6508C43.7147 2.5548 44.4291 3.30159 45.3366 3.30159C46.2441 3.28194 46.9585 2.5548 46.9585 1.6508Z" fill="white"/>
</svg>
