<svg width="34" height="33" viewBox="0 0 34 33" fill="none" xmlns="http://www.w3.org/2000/svg">
<path d="M17 8.1125C18.6434 8.1125 19.975 9.405 19.975 11C19.975 12.595 18.6434 13.8875 17 13.8875C15.3567 13.8875 14.025 12.595 14.025 11C14.025 9.405 15.3567 8.1125 17 8.1125ZM17 20.4875C21.2075 20.4875 25.6417 22.495 25.6417 23.375V24.8875H8.35835V23.375C8.35835 22.495 12.7925 20.4875 17 20.4875ZM17 5.5C13.8692 5.5 11.3334 7.96125 11.3334 11C11.3334 14.0387 13.8692 16.5 17 16.5C20.1309 16.5 22.6667 14.0387 22.6667 11C22.6667 7.96125 20.1309 5.5 17 5.5ZM17 17.875C13.2175 17.875 5.66669 19.7175 5.66669 23.375V27.5H28.3334V23.375C28.3334 19.7175 20.7825 17.875 17 17.875Z" fill="white"/>
</svg>
