<svg width="52" height="49" viewBox="0 0 52 49" fill="none" xmlns="http://www.w3.org/2000/svg">
<path d="M17.3333 11.8218C22.5419 11.8218 22.9509 9.41986 22.9509 6.26598C22.9509 2.86147 20.3681 0 17.3333 0C14.277 0 11.7158 2.86147 11.7158 6.26598C11.6943 9.41986 12.1247 11.8218 17.3333 11.8218ZM17.3333 1.46206C19.5287 1.46206 21.4443 3.69693 21.4443 6.26598C21.4443 9.0439 21.2721 10.3598 17.3333 10.3598C13.3946 10.3598 13.2224 9.02302 13.2224 6.26598C13.2009 3.69693 15.138 1.46206 17.3333 1.46206Z" fill="#FEDC32"/>
<path d="M23.3168 13.2421C19.3565 12.156 15.3317 12.156 11.3499 13.2421C9.39128 13.7852 8.03532 15.5605 8.03532 17.6074V22.7246C8.03532 23.1215 8.37969 23.4557 8.78863 23.4557C9.19757 23.4557 9.54194 23.1215 9.54194 22.7246V17.6074C9.54194 16.2289 10.4459 15.0175 11.7588 14.6624C15.4608 13.6598 19.2058 13.6598 22.9078 14.6624C24.2207 15.0175 25.1247 16.2289 25.1247 17.6074V22.7246C25.1247 23.1215 25.4691 23.4557 25.878 23.4557C26.287 23.4557 26.6313 23.1215 26.6313 22.7246V17.6074C26.6313 15.5605 25.2539 13.7852 23.3168 13.2421Z" fill="#FEDC32"/>
<path d="M22.3698 17.1479C21.9608 17.1479 21.6164 17.4821 21.6164 17.8789V22.7246C21.6164 23.1215 21.9608 23.4557 22.3698 23.4557C22.7787 23.4557 23.1231 23.1215 23.1231 22.7246V17.8789C23.1231 17.4821 22.8002 17.1479 22.3698 17.1479Z" fill="#FEDC32"/>
<path d="M12.2754 17.1479C11.8664 17.1479 11.5221 17.4821 11.5221 17.8789V22.7246C11.5221 23.1215 11.8664 23.4557 12.2754 23.4557C12.6843 23.4557 13.0287 23.1215 13.0287 22.7246V17.8789C13.0287 17.4821 12.7058 17.1479 12.2754 17.1479Z" fill="#FEDC32"/>
<path d="M14.0116 25.0013C14.3775 25.1893 14.8295 25.0431 15.0232 24.6671L16.3791 22.0563H35.6424L36.9983 24.6671C37.1275 24.9177 37.3858 25.0639 37.6656 25.0639C37.7732 25.0639 37.9023 25.043 38.0099 24.9804C38.3758 24.7924 38.5265 24.3538 38.3543 23.9987L36.8046 20.9702C36.6755 20.7195 36.4172 20.5733 36.1374 20.5733H15.9056C15.6258 20.5733 15.3675 20.7195 15.2384 20.9702L13.6887 23.9987C13.4735 24.3956 13.6242 24.8342 14.0116 25.0013Z" fill="#FEDC32"/>
<path d="M41.8195 30.8078L39.947 27.1944C39.7533 26.8393 39.3013 26.6931 38.9354 26.8602C38.5695 27.0482 38.4189 27.4868 38.5911 27.8419L39.904 30.39H12.0745L13.3874 27.8419C13.5811 27.4868 13.4305 27.0482 13.043 26.8602C12.6772 26.6722 12.2252 26.8184 12.0315 27.1944L10.1589 30.8078C10.0513 31.0375 10.0513 31.309 10.202 31.5179C10.3311 31.7268 10.5894 31.873 10.8477 31.873H41.1308C41.3891 31.873 41.6258 31.7477 41.7765 31.5179C41.9272 31.309 41.9272 31.0375 41.8195 30.8078Z" fill="#FEDC32"/>
<path d="M5.81126 17.2315C11.1921 17.2315 11.6225 14.7459 11.6225 11.4876C11.6225 7.97869 8.97516 5.01279 5.81126 5.01279C2.64735 5.01279 0 7.99957 0 11.4876C0 14.7459 0.430462 17.2315 5.81126 17.2315ZM5.81126 6.49574C8.09271 6.49574 10.1159 8.83504 10.1159 11.5085C10.1159 14.3909 9.94371 15.7903 5.81126 15.7903C1.67881 15.7903 1.50662 14.3909 1.50662 11.4876C1.50662 8.83504 3.50828 6.49574 5.81126 6.49574Z" fill="#FEDC32"/>
<path d="M18.7467 24.1658L13.0861 23.4766C13 23.4557 12.9354 23.4348 12.8709 23.3721L8.13576 19.2992C7.25331 18.5473 6.11258 18.1296 4.92881 18.1296C2.19536 18.1296 0 20.26 0 22.8917V34.9642C0 37.3035 1.95861 39.2042 4.3692 39.2042H12.6126V45.8252C12.6126 47.5797 14.0762 49 15.8841 49C17.6921 49 19.1556 47.5797 19.1556 45.8252V37.0946C19.1556 34.7553 17.197 32.8546 14.7864 32.8546H9.83609V27.6748C10.5033 28.0507 11.2566 28.2596 12.0315 28.2596H18.4238C19.5861 28.2596 20.5331 27.3406 20.5331 26.2127C20.5331 25.1893 19.8013 24.3329 18.7467 24.1658ZM18.4238 26.7766H12.0315C11.4288 26.7766 10.8262 26.5887 10.3311 26.2336L9.53477 25.6696C9.51324 25.6696 9.51324 25.6488 9.49172 25.6488L6.24172 23.3303C5.89735 23.1006 5.42384 23.1633 5.18708 23.4974C4.95033 23.8316 5.0149 24.2702 5.35927 24.5209L8.32947 26.6304V33.5857C8.32947 33.9825 8.67384 34.3167 9.08278 34.3167H14.8079C16.3791 34.3167 17.6705 35.5699 17.6705 37.0946V45.8252C17.6705 46.7651 16.8742 47.5379 15.9056 47.5379C14.9371 47.5379 14.1407 46.7651 14.1407 45.8252V38.4731C14.1407 38.0763 13.7964 37.7421 13.3874 37.7421H4.3692C2.79801 37.7421 1.50662 36.4889 1.50662 34.9642V22.8917C1.50662 21.0746 3.03477 19.5916 4.90728 19.5916C5.72516 19.5916 6.52152 19.8841 7.12417 20.3853L11.8593 24.4582C12.1391 24.688 12.4834 24.8551 12.8709 24.9177L18.5315 25.607C18.8328 25.6488 19.048 25.8994 19.048 26.1918C19.0265 26.526 18.7682 26.7766 18.4238 26.7766Z" fill="#FEDC32"/>
<path d="M46.1887 17.2315C51.5695 17.2315 52 14.7459 52 11.4876C52 7.97869 49.3527 5.01279 46.1887 5.01279C43.0464 5.01279 40.3775 7.97869 40.3775 11.4876C40.3775 14.7459 40.8079 17.2315 46.1887 17.2315ZM46.1887 6.49574C48.4702 6.49574 50.4934 8.83504 50.4934 11.5085C50.4934 14.3909 50.3212 15.7903 46.1887 15.7903C42.0778 15.7903 41.8841 14.4118 41.8841 11.5085C41.8841 8.83504 43.9073 6.49574 46.1887 6.49574Z" fill="#FEDC32"/>
<path d="M47.0712 18.1296C45.8874 18.1296 44.7467 18.5473 43.8427 19.2992L39.1291 23.3721C39.0646 23.4348 38.9785 23.4557 38.9354 23.4766L33.2103 24.1867C32.1772 24.3538 31.4454 25.2101 31.4454 26.2127C31.4454 27.3406 32.3924 28.2596 33.5546 28.2596H39.947C40.7219 28.2596 41.4752 28.0507 42.1424 27.6748V32.8546H37.1705C34.7599 32.8546 32.8013 34.7553 32.8013 37.0946V45.8252C32.8013 47.5797 34.2649 49 36.0728 49C37.8808 49 39.3444 47.5797 39.3444 45.8252V39.2042H47.5877C49.9983 39.2042 51.9569 37.3035 51.9569 34.9642V22.8917C51.9785 20.26 49.7831 18.1296 47.0712 18.1296ZM50.4718 34.9642C50.4718 36.4889 49.1805 37.7421 47.6093 37.7421H38.6126C38.2036 37.7421 37.8593 38.0763 37.8593 38.4731V45.8252C37.8593 46.7651 37.0629 47.5379 36.0944 47.5379C35.1258 47.5379 34.3295 46.7651 34.3295 45.8252V37.0946C34.3295 35.5699 35.6209 34.3167 37.1921 34.3167H42.9172C43.3262 34.3167 43.6705 33.9825 43.6705 33.5857V26.6304L46.6407 24.5209C46.9851 24.2911 47.0497 23.8316 46.8129 23.4974C46.5762 23.1633 46.1026 23.1006 45.7583 23.3303L41.6689 26.2336C41.1738 26.5887 40.5927 26.7766 39.9685 26.7766H33.5762C33.2318 26.7766 32.9735 26.5051 32.9735 26.1918C32.9735 25.8994 33.1887 25.6488 33.447 25.607L39.1722 24.8968C39.5381 24.8342 39.8825 24.688 40.1407 24.4373L44.8543 20.3853C45.4785 19.8632 46.2533 19.5708 47.0712 19.5708C48.9437 19.5708 50.4718 21.0537 50.4718 22.8708V34.9642Z" fill="#FEDC32"/>
<path d="M34.6668 11.8218C39.8754 11.8218 40.2843 9.41986 40.2843 6.26598C40.2843 2.86147 37.7015 0 34.6668 0C31.6105 0 29.0492 2.86147 29.0492 6.26598C29.0277 9.41986 29.4582 11.8218 34.6668 11.8218ZM34.6668 1.46206C36.8621 1.46206 38.7777 3.69693 38.7777 6.26598C38.7777 9.0439 38.6055 10.3598 34.6668 10.3598C30.728 10.3598 30.5558 9.02302 30.5558 6.26598C30.5343 3.69693 32.4714 1.46206 34.6668 1.46206Z" fill="#FEDC32"/>
<path d="M40.6502 13.2421C36.69 12.156 32.6651 12.156 28.6833 13.2421C26.7247 13.7852 25.3688 15.5605 25.3688 17.6074V22.7246C25.3688 23.1215 25.7131 23.4557 26.1221 23.4557C26.531 23.4557 26.8754 23.1215 26.8754 22.7246V17.6074C26.8754 16.2289 27.7794 15.0175 29.0923 14.6624C32.7943 13.6598 36.5393 13.6598 40.2413 14.6624C41.5542 15.0175 42.4582 16.2289 42.4582 17.6074V22.7246C42.4582 23.1215 42.8025 23.4557 43.2115 23.4557C43.6204 23.4557 43.9648 23.1215 43.9648 22.7246V17.6074C43.9648 15.5605 42.5873 13.7852 40.6502 13.2421Z" fill="#FEDC32"/>
</svg>
