<svg width="27" height="22" viewBox="0 0 27 22" fill="none" xmlns="http://www.w3.org/2000/svg">
<path d="M27 2.70154C26.8194 3.06871 26.4833 3.53248 25.9916 4.09285C25.5 4.65321 24.893 5.14598 24.1706 5.5711C24.1906 5.72571 24.2057 5.87062 24.2157 6.00588C24.2936 8.08848 23.7756 10.2492 23.0569 12.0494C21.6637 15.3963 19.529 18.0899 16.4799 19.9189C13.3004 21.6752 9.59735 22.0487 6.18561 21.7305C3.92062 21.48 1.68824 20.7678 0 19.4262C3.08774 19.7816 5.96936 18.7701 8.24749 17.1363C5.71687 17.198 3.87819 15.4352 3.01005 13.3972C3.40139 13.4959 3.81078 13.484 4.18397 13.4552C4.64333 13.4136 5.07938 13.3721 5.50838 13.2813C3.89475 12.7799 2.48283 11.8583 1.74584 10.4696C1.31355 9.58977 1.11836 8.75187 1.11375 7.80298C1.86986 8.18633 2.77938 8.55995 3.61208 8.5276C2.35451 7.50175 1.34633 6.1907 1.15891 4.68701C1.04058 3.43325 1.36638 2.28877 1.83618 1.22325C3.71734 3.21409 5.82802 4.85246 8.26259 5.86093C9.92754 6.51748 11.5878 6.86858 13.3044 6.87541C13.1063 5.39893 13.2603 3.97099 13.9817 2.75946C14.8306 1.4569 16.0692 0.701168 17.4583 0.324667C19.4459 -0.166127 21.3845 0.527142 22.6055 1.8609C23.9222 1.72394 25.1835 1.16143 26.1874 0.585533C25.7608 1.82942 24.9302 3.06619 23.7192 3.658C24.8722 3.45242 25.9725 3.12372 27 2.70154Z" fill="black"/>
</svg>
