<svg width="202" height="202" viewBox="0 0 202 202" fill="none" xmlns="http://www.w3.org/2000/svg">
<g clip-path="url(#clip0)">
<path d="M101 202C156.781 202 202 156.781 202 101C202 45.2192 156.781 0 101 0C45.2192 0 0 45.2192 0 101C0 156.781 45.2192 202 101 202Z" fill="#75B73B"/>
<path d="M142.126 59.9001C136.27 58.4356 127.658 53.3777 122.084 51.3502C100.32 44.5489 71.074 49.9899 62.9124 75.1551C62.2322 75.8352 60.8719 75.8352 60.1917 75.8352C43.8683 94.8789 54.7507 118.004 53.3904 139.088C52.926 146.52 49.0178 153.092 43.9883 158.652L86.3144 200.934C91.1095 201.632 96.0112 202 101 202C150.883 202 192.315 165.835 200.519 118.296L142.126 59.9001Z" fill="#52891D"/>
<path d="M98.1742 42.7857C67.3893 44.2502 43.096 69.8885 43.1887 100.707C43.2171 110.094 45.4833 118.954 49.4815 126.784L43.3438 156.576C43.012 158.188 44.4654 159.6 46.0665 159.22L75.2598 152.304C82.7602 156.041 91.1846 158.198 100.1 158.334C131.565 158.815 157.801 133.832 158.783 102.378C159.833 68.6623 132.007 41.1741 98.1742 42.7857ZM133.008 132.537C124.459 141.086 113.091 145.795 101 145.795C93.9207 145.795 87.1419 144.206 80.8531 141.074L76.7886 139.049L58.8887 143.289L62.6561 125L60.6538 121.077C57.3887 114.683 55.7333 107.77 55.7333 100.528C55.7333 88.4366 60.442 77.0697 68.9911 68.5198C77.464 60.0461 89.0171 55.262 101.001 55.262C113.091 55.262 124.459 59.9707 133.008 68.5198C141.557 77.0689 146.266 88.4369 146.266 100.527C146.267 112.511 141.482 124.064 133.008 132.537Z" fill="white"/>
<path d="M129.057 113.066L117.859 109.85C116.388 109.429 114.802 109.847 113.729 110.939L110.99 113.729C109.836 114.906 108.084 115.284 106.556 114.665C101.258 112.521 90.1147 102.613 87.2705 97.6587C86.4483 96.2289 86.5844 94.4425 87.5928 93.1366L89.9829 90.0438C90.9195 88.8326 91.1168 87.2044 90.4978 85.8038L85.7867 75.1483C84.6583 72.5965 81.3971 71.8532 79.2663 73.6554C76.1412 76.2992 72.433 80.3151 71.9828 84.7654C71.1878 92.6114 74.5532 102.501 87.2756 114.377C101.975 128.098 113.746 129.909 121.412 128.053C125.759 127.001 129.233 122.78 131.424 119.324C132.92 116.965 131.738 113.836 129.057 113.066Z" fill="white"/>
<path d="M140.455 58.2754L131.687 67.2621C132.133 67.6743 132.578 68.089 133.009 68.521C141.559 77.0701 146.267 88.4381 146.267 100.528C146.267 112.512 141.482 124.064 133.009 132.538C124.46 141.087 113.092 145.796 101.001 145.796C93.9215 145.796 87.1431 144.207 80.8538 141.075L76.7894 139.049L58.8895 143.289L59.2596 141.493L43.4097 157.737C43.7592 158.787 44.8714 159.502 46.0664 159.219L75.2598 152.303C82.7602 156.04 91.1846 158.197 100.1 158.333C131.565 158.814 157.802 133.831 158.783 102.377C159.325 84.9651 152.165 69.2146 140.455 58.2754Z" fill="#D1D1D1"/>
<path d="M129.057 113.066L117.859 109.851C116.388 109.429 114.802 109.847 113.729 110.939L110.99 113.729C109.836 114.906 108.084 115.284 106.556 114.665C103.496 113.427 98.4871 109.598 94.2522 105.629L86.4673 113.608C86.7344 113.864 87.0007 114.119 87.2761 114.377C101.975 128.098 113.747 129.909 121.412 128.053C125.759 127.001 129.234 122.78 131.425 119.324C132.92 116.966 131.738 113.836 129.057 113.066Z" fill="#D1D1D1"/>
</g>
<defs>
<clipPath id="clip0">
<rect width="202" height="202" fill="white"/>
</clipPath>
</defs>
</svg>
