<svg width="83" height="83" viewBox="0 0 83 83" fill="none" xmlns="http://www.w3.org/2000/svg">
<path d="M41.5 83C64.4198 83 83 64.4198 83 41.5C83 18.5802 64.4198 0 41.5 0C18.5802 0 0 18.5802 0 41.5C0 64.4198 18.5802 83 41.5 83Z" fill="#25D366"/>
<path d="M40.3392 17.5802C27.69 18.182 17.7081 28.7165 17.7462 41.3796C17.7579 45.2366 18.689 48.877 20.3318 52.0943L17.8099 64.3358C17.6736 64.9982 18.2708 65.578 18.9286 65.4221L30.9239 62.5803C34.0058 64.1157 37.4673 65.0021 41.1306 65.058C54.0593 65.2556 64.8393 54.9902 65.2428 42.0662C65.6743 28.2126 54.2407 16.918 40.3392 17.5802ZM54.6523 54.4583C51.1396 57.9711 46.4686 59.9058 41.5004 59.9058C38.5915 59.9058 35.8062 59.253 33.2221 57.966L31.5521 57.1338L24.1972 58.876L25.7452 51.3612L24.9225 49.7494C23.5808 47.1222 22.9006 44.2817 22.9006 41.306C22.9006 36.3377 24.8354 31.6672 28.3482 28.1541C31.8296 24.6723 36.5767 22.7066 41.5007 22.7066C46.4684 22.7066 51.1394 24.6414 54.6522 28.1541C58.1649 31.6669 60.0997 36.3379 60.0997 41.3056C60.1 46.2298 58.134 50.9767 54.6523 54.4583Z" fill="white"/>
<path d="M53.0287 46.4575L48.4274 45.1365C47.8229 44.9632 47.1712 45.1349 46.7304 45.5839L45.6051 46.73C45.1308 47.2137 44.411 47.3689 43.783 47.1149C41.6063 46.234 37.0275 42.1627 35.8589 40.127C35.5211 39.5395 35.577 38.8055 35.9913 38.2689L36.9734 36.9981C37.3583 36.5004 37.4393 35.8314 37.185 35.2559L35.2492 30.8777C34.7856 29.8291 33.4456 29.5237 32.57 30.2642C31.286 31.3505 29.7623 33.0006 29.5773 34.8292C29.2507 38.0531 30.6335 42.1167 35.861 46.9964C41.9007 52.6342 46.7376 53.3784 49.8872 52.6157C51.6735 52.1834 53.101 50.4491 54.0014 49.0289C54.6159 48.06 54.1302 46.7741 53.0287 46.4575Z" fill="white"/>
</svg>
